<svg  viewBox="0 0 55 56" xmlns="http://www.w3.org/2000/svg">
<path d="M48.125 33.9988H20.625C18.3688 33.9988 16.5417 32.1716 16.5417 29.9154V11.5821C16.5417 9.32596 18.3688 7.49878 20.625 7.49878H48.125C50.3811 7.49878 52.2083 9.32596 52.2083 11.5821V29.9154C52.2083 32.1716 50.3811 33.9988 48.125 33.9988Z" stroke="#ECECEC"/>
<path d="M21.8575 31.2691L21.8577 31.269L30.5477 29.0965C32.5224 28.6029 34.5445 29.7123 35.1837 31.6403L35.184 31.6412C35.7162 33.2357 35.1656 34.9922 33.8176 35.9951L33.8158 35.9964L21.6998 45.0943C21.6998 45.0943 21.6998 45.0943 21.6998 45.0943C19.4052 46.8169 16.6139 47.7487 13.7454 47.7487H9.16666C5.64551 47.7487 2.79166 44.8949 2.79166 41.3737V26.5682L6.85938 20.5048L6.8596 20.5045C8.46705 18.1041 11.1665 16.6654 14.0548 16.6654H15.5417V26.3358C15.5417 29.645 18.6501 32.0696 21.8575 31.2691Z" fill="#465279" stroke="#ECECEC"/>
<path d="M52.7083 11.5822H16.0417V16.1655H52.7083V11.5822Z" fill="#DC7751"/>
</svg>
