<svg viewBox="0 0 55 56"  xmlns="http://www.w3.org/2000/svg">
<path d="M40.6547 6.40372L40.6548 6.40357C41.8254 5.23304 43.5743 4.88233 45.1056 5.5173C46.6308 6.15031 47.625 7.63871 47.625 9.29044V45.9571C47.625 47.6084 46.6314 49.0964 45.1069 49.7297C44.5994 49.9384 44.0682 50.0404 43.5417 50.0404C42.4778 50.0404 41.437 49.6261 40.6548 48.844L40.6537 48.8428C39.2138 47.4123 36.2118 44.8584 32.5838 42.6587C28.9671 40.4658 24.659 38.5821 20.625 38.5821C18.3712 38.5821 16.5417 36.7526 16.5417 34.4988V20.7488C16.5417 18.4949 18.3712 16.6654 20.625 16.6654C24.6839 16.6654 28.9952 14.7826 32.6081 12.5896C36.2318 10.3899 39.2215 7.8357 40.6547 6.40372Z" stroke="#ECECEC"/>
<path d="M20.0652 16.4796V16.494V16.5186V16.5438V16.5696V16.5959V16.6227V16.65V16.6779V16.7063V16.7352V16.7647V16.7946V16.8251V16.8561V16.8876V16.9196V16.9521V16.9852V17.0187V17.0527V17.0872V17.1223V17.1578V17.1938V17.2302V17.2672V17.3047V17.3426V17.381V17.4199V17.4592V17.499V17.5393V17.5801V17.6213V17.6629V17.7051V17.7477V17.7907V17.8342V17.8781V17.9225V17.9673V18.0125V18.0582V18.1043V18.1509V18.1979V18.2453V18.2931V18.3414V18.39V18.4391V18.4886V18.5386V18.5889V18.6396V18.6908V18.7423V18.7942V18.8466V18.8993V18.9524V19.0059V19.0598V19.1141V19.1688V19.2238V19.2792V19.335V19.3912V19.4477V19.5046V19.5619V19.6195V19.6775V19.7359V19.7945V19.8536V19.913V19.9727V20.0328V20.0933V20.154V20.2151V20.2766V20.3384V20.4005V20.4629V20.5257V20.5887V20.6521V20.7158V20.7799V20.8442V20.9089V20.9738V21.0391V21.1046V21.1705V21.2367V21.3031V21.3699V21.4369V21.5042V21.5718V21.6397V21.7079V21.7763V21.845V21.914V21.9833V22.0528V22.1226V22.1927V22.263V22.3336V22.4044V22.4755V22.5468V22.6184V22.6902V22.7622V22.8345V22.9071V22.9799V23.0529V23.1261V23.1996V23.2732V23.3471V23.4213V23.4956V23.5702V23.645V23.7199V23.7951V23.8705V23.9461V24.0219V24.0979V24.1741V24.2505V24.327V24.4038V24.4807V24.5579V24.6352V24.7127V24.7903V24.8681V24.9461V25.0243V25.1026V25.1811V25.2598V25.3386V25.4176V25.4967V25.5759V25.6554V25.7349V25.8146V25.8945V25.9744V26.0546V26.1348V26.2152V26.2957V26.3763V26.4571V26.5379V26.6189V26.7V26.7813V26.8626V26.944V27.0256V27.1072V27.1889V27.2708V27.3527V27.4347V27.5169V27.5991V27.6813V27.7637V27.8462V27.9287V28.0113V28.094V28.1767V28.2595V28.3424V28.4254V28.5084V28.5914V28.6745V28.7577V28.8409V28.9242V29.0075V29.0909V29.1743V29.2577V29.3412V29.4247V29.5082V29.5917V29.6753V29.7589V29.8426V29.9262V30.0099V30.0935V30.1772V30.2609V30.3446V30.4283V30.512V30.5957V30.6794V30.7631V30.8467V30.9304V31.014V31.0977V31.1813V31.2649V31.3484V31.432V31.5155V31.5989V31.6824V31.7658V31.8492V31.9325V32.0158V32.099V32.1822V32.2653V32.3484V32.4314V32.5143V32.5972V32.6801V32.7628V32.8455V32.9281V33.0107V33.0931V33.1755V33.2578V33.3401V33.4222V33.5043V33.5862V33.6681V33.7498V33.8315V33.9131V33.9945V34.0759V34.1571V34.2382V34.3193V34.4002V34.4809V34.5616V34.6421V34.7225V34.8028V34.883V34.963V35.0428V35.1226V35.2022V35.2816V35.3609V35.4401V35.5191V35.5979V35.6766V35.7551V35.8335V35.9117V35.9897V36.0676V36.1453V36.2228V36.3002V36.3773V36.4543V36.5311V36.6077V36.6842V36.7604V36.8364V36.9123V36.9879V37.0634V37.1386V37.2136V37.2884V37.363V37.4374V37.5116V37.5856V37.6593V37.7328V37.8061V37.8792V37.952V38.0246V38.0969V38.1691V38.2409V38.3126V38.3839V38.4551V38.526V38.5966V38.667V38.7371V38.8069V38.8765V38.9458V39.0149V39.0837V39.1522V39.2204V39.2884V39.356V39.4234V39.4905V39.5573V39.6239V39.6901V39.756V39.8216V39.887V39.952V40.0167V40.0811V40.1452V40.209V40.2725V40.3356V40.3985V40.461V40.5231V40.585V40.6465V40.7077V40.7685V40.829V40.8892V40.949V41.0085V41.0676V41.1264V41.1848V41.2429V41.3006V41.358V41.415V41.4716V41.5278V41.5837V41.6392V41.6943V41.7491V41.8034V41.8574V41.911V41.9642V42.0171V42.0695V42.1215V42.1731V42.2244V42.2752V42.3256V42.3756V42.4252V42.4744V42.5232V42.5715V42.6195V42.667V42.714V42.7607V42.8069V42.8527V42.8981V42.943V42.9874V43.0315V43.0751V43.1182V43.1609V43.2031V43.2449V43.2862V43.327V43.3674V43.4074V43.4468V43.4858V43.5243V43.5623V43.5999V43.637V43.6736V43.7097V43.7453V43.7804V43.8151V43.8492V43.8828V43.916V43.9486V43.9807V44.0124V44.0435V44.0741V44.1041V44.1337V44.1628V44.1913V44.2193V44.2467V44.2737V44.3001V44.3259V44.3513V44.376V44.4003V44.424V44.4471V44.4697V44.4918V44.5133V44.5342V44.5546V44.5744V44.5936V44.6123V44.6304V44.6479V44.6649V44.6812V44.697V44.7123V44.7269V44.7409V44.7544V44.7672V44.7795V44.7911V44.8022V44.8127V44.8225V44.8318V44.8404V44.8484V44.8558V44.8626V44.8688V44.8743V44.8792V44.8835C20.0652 46.4054 19.7001 47.7597 19.1361 48.7166C18.5652 49.685 17.8489 50.1643 17.1576 50.1643C16.4663 50.1643 15.75 49.685 15.1792 48.7166C14.6151 47.7597 14.25 46.4054 14.25 44.8835C14.25 44.7743 14.2119 44.2295 14.151 43.4098C14.0888 42.5722 14.0001 41.4133 13.8936 40.0424C13.6805 37.3004 13.3965 33.7082 13.1126 30.1376C12.8286 26.5668 12.5446 23.0173 12.3316 20.3605C12.2251 19.0321 12.1364 17.9269 12.0743 17.1537L12.0201 16.4796H20.0652Z" fill="#465279" stroke="#ECECEC"/>
<path d="M48.125 21.1704V34.0794C50.7902 33.1329 52.7083 30.6144 52.7083 27.626C52.7083 24.6377 50.7902 22.1169 48.125 21.1704Z" fill="#DC7751"/>
<path d="M5.08331 23.0404C5.08331 19.5193 7.93717 16.6654 11.4583 16.6654H20.125V38.5821H11.4583C7.93717 38.5821 5.08331 35.7282 5.08331 32.2071V23.0404Z" fill="#465279" stroke="#ECECEC"/>
</svg>
