<svg  viewBox="0 0 55 56" xmlns="http://www.w3.org/2000/svg">
<g clip-path="url(#clip0_3264_1161)">
<path d="M33.875 16.6654V16.1654C33.875 12.6443 31.0211 9.79041 27.5 9.79041H16.0417H15.5417V9.29041V2.91541H7.37499V9.29041V9.79041H6.87499H2.79166V36.7904C2.79166 40.3116 5.64551 43.1654 9.16666 43.1654H34.375H45.8333C49.3545 43.1654 52.2083 40.3116 52.2083 36.7904V30.1629C52.2083 28.5921 51.7815 27.0517 50.9733 25.7039C50.9733 25.7038 50.9733 25.7038 50.9733 25.7038L46.7409 18.6483L33.875 16.6654ZM33.875 16.6654H34.375M33.875 16.6654H34.375M34.375 16.6654H43.2392C44.6718 16.6654 46.0011 17.4185 46.7406 18.6478L34.375 16.6654Z" stroke="#ECECEC"/>
<path d="M20.125 42.5196C20.125 45.4076 17.7838 47.7487 14.8958 47.7487C12.0078 47.7487 9.66666 45.4076 9.66666 42.5196C9.66666 39.6316 12.0078 37.2904 14.8958 37.2904C17.7838 37.2904 20.125 39.6316 20.125 42.5196Z" fill="#465279" stroke="#ECECEC"/>
<path d="M45.3333 42.5196C45.3333 45.4076 42.9922 47.7487 40.1042 47.7487C37.2162 47.7487 34.875 45.4076 34.875 42.5196C34.875 39.6316 37.2162 37.2904 40.1042 37.2904C42.9922 37.2904 45.3333 39.6316 45.3333 42.5196Z" fill="#465279" stroke="#ECECEC"/>
<path d="M43.7601 22.1697L43.7599 22.1694C43.4449 21.602 42.8447 21.2488 42.1942 21.2488H36.6667C35.6778 21.2488 34.875 22.0516 34.875 23.0404V27.6238C34.875 28.6126 35.6778 29.4154 36.6667 29.4154H44.7425C46.107 29.4154 46.9713 27.9487 46.3084 26.753L43.7601 22.1697ZM43.7601 22.1697L46.3082 26.7526L43.7601 22.1697Z" stroke="#ECECEC"/>
<path d="M11.4583 0.123779C5.13104 0.123779 0 5.25482 0 11.5821C0 17.9094 5.13104 23.0404 11.4583 23.0404C17.7856 23.0404 22.9167 17.9094 22.9167 11.5821C22.9167 5.25482 17.7856 0.123779 11.4583 0.123779ZM13.1771 4.70711L13.6767 10.709L16.3396 14.0342C16.9377 14.779 16.8162 15.8675 16.0715 16.4657C15.4275 16.9813 14.5269 16.9607 13.9104 16.4657C13.9104 16.4657 10.3262 13.5919 9.83812 13.2023C9.35 12.8127 9.11854 12.2215 9.16208 11.644L9.16667 11.5821L9.73958 4.70711C9.81979 3.75836 10.6517 3.05253 11.6027 3.13045C12.4529 3.20149 13.1083 3.88211 13.1771 4.70711Z" fill="#DC7751"/>
</g>
<defs>
<clipPath id="clip0_3264_1161">
<rect width="55" height="55" fill="white" transform="translate(0 0.123779)"/>
</clipPath>
</defs>
</svg>
