<svg viewBox="0 0 55 56"  xmlns="http://www.w3.org/2000/svg">
<path d="M11.4583 34.9988H11.4943H11.5305H11.5669H11.6035H11.6404H11.6774H11.7146H11.7521H11.7897H11.8275H11.8656H11.9038H11.9423H11.9809H12.0197H12.0588H12.098H12.1374H12.177H12.2168H12.2568H12.297H12.3374H12.378H12.4188H12.4597H12.5008H12.5422H12.5837H12.6254H12.6673H12.7093H12.7516H12.794H12.8366H12.8794H12.9224H12.9655H13.0089H13.0524H13.096H13.1399H13.1839H13.2281H13.2725H13.3171H13.3618H13.4067H13.4517H13.497H13.5423H13.5879H13.6336H13.6795H13.7256H13.7718H13.8182H13.8648H13.9115H13.9584H14.0054H14.0526H14.0999H14.1474H14.1951H14.2429H14.2909H14.339H14.3873H14.4357H14.4843H14.5331H14.5819H14.631H14.6802H14.7295H14.779H14.8286H14.8784H14.9283H14.9784H15.0286H15.0789H15.1294H15.18H15.2308H15.2817H15.3327H15.3839H15.4352H15.4867H15.5382H15.59H15.6418H15.6938H15.7459H15.7982H15.8505H15.903H15.9557H16.0084H16.0613H16.1143H16.1675H16.2207H16.2741H16.3276H16.3812H16.435H16.4888H16.5428H16.5969H16.6512H16.7055H16.7599H16.8145H16.8692H16.924H16.9789H17.0339H17.0891H17.1443H17.1997H17.2551H17.3107H17.3664H17.4221H17.478H17.534H17.5901H17.6463H17.7026H17.759H17.8155H17.8721H17.9288H17.9856H18.0425H18.0995H18.1566H18.2137H18.271H18.3284H18.3858H18.4434H18.501H18.5588H18.6166H18.6745H18.7325H18.7906H18.8487H18.907H18.9653H19.0237H19.0822H19.1408H19.1995H19.2582H19.317H19.3759H19.4349H19.494H19.5531H19.6123H19.6716H19.731H19.7904H19.8499H19.9094H19.9691H20.0288H20.0886H20.1484H20.2083H20.2683H20.3283H20.3884H20.4486H20.5089H20.5691H20.6295H20.6899H20.7504H20.8109H20.8715H20.9322H20.9929H21.0536H21.1145H21.1753H21.2363H21.2972H21.3583H21.4193H21.4805H21.5416H21.6029H21.6641H21.7255H21.7868H21.8482H21.9097H21.9712H22.0327H22.0943H22.1559H22.2176H22.2793H22.341H22.4028H22.4646H22.5265H22.5883H22.6503H22.7122H22.7742H22.8362H22.8983H22.9603H23.0224H23.0846H23.1467H23.2089H23.2711H23.3334H23.3956H23.4579H23.5202H23.5826H23.6449H23.7073H23.7697H23.8321H23.8945H23.957H24.0195H24.0819H24.1444H24.2069H24.2695H24.332H24.3946H24.4571H24.5197H24.5822H24.6448H24.7074H24.77H24.8326H24.8952H24.9578H25.0205H25.0831H25.1457H25.2083H25.2709H25.3336H25.3962H25.4588H25.5214H25.584H25.6466H25.7092H25.7718H25.8344H25.897H25.9595H26.0221H26.0846H26.1472H26.2097H26.2722H26.3347H26.3972H26.4596H26.5221H26.5845H26.6469H26.7093H26.7717H26.8341H26.8964H26.9587H27.021H27.0833H27.1455H27.2077H27.2699H27.3321H27.3942H27.4563H27.5184H27.5804H27.6424H27.7044H27.7664H27.8283H27.8902H27.952H28.0138H28.0756H28.1374H28.1991H28.2607H28.3223H28.3839H28.4455H28.5069H28.5684H28.6298H28.6912H28.7525H28.8138H28.875H28.9362H28.9973H29.0584H29.1194H29.1804H29.2413H29.3022H29.363H29.4237H29.4845H29.5451H29.6057H29.6662H29.7267H29.7871H29.8475H29.9078H29.968H30.0282H30.0883H30.1483H30.2083H30.2682H30.3281H30.3878H30.4475H30.5072H30.5668H30.6263H30.6857H30.745H30.8043H30.8635H30.9226H30.9817H31.0407H31.0996H31.1584H31.2171H31.2758H31.3344H31.3929H31.4513H31.5096H31.5679H31.6261H31.6841H31.7421H31.8001H31.8579H31.9156H31.9732H32.0308H32.0882H32.1456H32.2029H32.2601H32.3172H32.3741H32.431H32.4878H32.5445H32.6011H32.6576H32.714H32.7703H32.8265H32.8826H32.9386H32.9945H33.0503H33.106H33.1615H33.217H33.2723H33.3276H33.3827H33.4377H33.4926H33.5474H33.6021H33.6567H33.7111H33.7655H33.8197H33.8738H33.9278H33.9817H34.0354H34.089H34.1425H34.1959H34.2492H34.3023H34.3553H34.4082H34.461H34.5136H34.5661H34.6185H34.6707H34.7228H34.7748H34.8267H34.8784H34.93H34.9814H35.0327H35.0839H35.135H35.1859H35.2366H35.2872H35.3377H35.3881H35.4383H35.4883H35.5383H35.588H35.6376H35.6871H35.7365H35.7856H35.8347H35.8836H35.9323H35.9809H36.0293H36.0776H36.1257H36.1737H36.2215H36.2692H36.3167H36.3641H36.4112H36.4583H36.5052H36.5519H36.5984H36.6448H36.691H36.7371H36.783H36.8287H36.8743H36.9197H36.9649H37.01H37.0549H37.0996H37.1441H37.1885H37.2327H37.2767H37.3206H37.3643H37.4078H37.4511H37.4943H37.5372H37.58H37.6226H37.6651H37.7073H37.7494H37.7913H37.833H37.8745H37.9158H37.9569H37.9979H38.0386H38.0792H38.1196H38.1598H38.1998H38.2396H38.2792H38.3186H38.3579H38.3969H38.4357H38.4744H38.5128H38.551H38.5891H38.6269H38.6646H38.702H38.7392H38.7763H38.8131H38.8497H38.8861H38.9223H38.9583C42.4863 34.9988 45.3333 37.8458 45.3333 41.3738C45.3333 44.9018 42.4863 47.7488 38.9583 47.7488H38.911H38.8635H38.816H38.7684H38.7208H38.6731H38.6253H38.5774H38.5294H38.4814H38.4333H38.3852H38.3369H38.2886H38.2403H38.1918H38.1433H38.0947H38.0461H37.9973H37.9485H37.8997H37.8508H37.8018H37.7527H37.7036H37.6544H37.6051H37.5557H37.5063H37.4569H37.4073H37.3577H37.3081H37.2584H37.2086H37.1587H37.1088H37.0588H37.0087H36.9586H36.9085H36.8582H36.8079H36.7576H36.7071H36.6566H36.6061H36.5555H36.5048H36.4541H36.4033H36.3525H36.3015H36.2506H36.1996H36.1485H36.0973H36.0461H35.9949H35.9436H35.8922H35.8407H35.7893H35.7377H35.6861H35.6345H35.5828H35.531H35.4792H35.4273H35.3754H35.3234H35.2714H35.2193H35.1671H35.1149H35.0627H35.0104H34.9581H34.9057H34.8532H34.8007H34.7481H34.6955H34.6429H34.5902H34.5374H34.4846H34.4318H34.3789H34.3259H34.2729H34.2199H34.1668H34.1137H34.0605H34.0072H33.954H33.9006H33.8473H33.7939H33.7404H33.6869H33.6333H33.5797H33.5261H33.4724H33.4187H33.3649H33.3111H33.2573H33.2034H33.1494H33.0955H33.0415H32.9874H32.9333H32.8792H32.825H32.7707H32.7165H32.6622H32.6078H32.5535H32.4991H32.4446H32.3901H32.3356H32.281H32.2264H32.1718H32.1171H32.0624H32.0076H31.9529H31.898H31.8432H31.7883H31.7334H31.6784H31.6234H31.5684H31.5134H31.4583H31.4032H31.348H31.2928H31.2376H31.1824H31.1271H31.0718H31.0164H30.9611H30.9057H30.8502H30.7948H30.7393H30.6838H30.6282H30.5726H30.517H30.4614H30.4058H30.3501H30.2944H30.2386H30.1829H30.1271H30.0713H30.0154H29.9596H29.9037H29.8478H29.7918H29.7359H29.6799H29.6239H29.5679H29.5118H29.4557H29.3997H29.3435H29.2874H29.2312H29.1751H29.1189H29.0626H29.0064H28.9501H28.8939H28.8376H28.7812H28.7249H28.6686H28.6122H28.5558H28.4994H28.443H28.3865H28.3301H28.2736H28.2171H28.1606H28.1041H28.0476H27.991H27.9344H27.8779H27.8213H27.7647H27.7081H27.6514H27.5948H27.5381H27.4815H27.4248H27.3681H27.3114H27.2547H27.198H27.1412H27.0845H27.0277H26.971H26.9142H26.8574H26.8006H26.7438H26.687H26.6302H26.5734H26.5166H26.4597H26.4029H26.3461H26.2892H26.2324H26.1755H26.1186H26.0618H26.0049H25.948H25.8911H25.8342H25.7773H25.7204H25.6635H25.6066H25.5497H25.4928H25.4359H25.379H25.3221H25.2652H25.2083H25.1514H25.0945H25.0376H24.9807H24.9238H24.8669H24.81H24.7531H24.6962H24.6393H24.5824H24.5255H24.4686H24.4118H24.3549H24.298H24.2411H24.1843H24.1274H24.0706H24.0137H23.9569H23.9001H23.8432H23.7864H23.7296H23.6728H23.616H23.5592H23.5024H23.4457H23.3889H23.3321H23.2754H23.2187H23.1619H23.1052H23.0485H22.9918H22.9352H22.8785H22.8218H22.7652H22.7086H22.652H22.5954H22.5388H22.4822H22.4256H22.3691H22.3125H22.256H22.1995H22.143H22.0866H22.0301H21.9737H21.9172H21.8608H21.8044H21.7481H21.6917H21.6354H21.5791H21.5228H21.4665H21.4102H21.354H21.2978H21.2416H21.1854H21.1292H21.0731H21.017H20.9609H20.9048H20.8488H20.7927H20.7367H20.6807H20.6248H20.5688H20.5129H20.4571H20.4012H20.3454H20.2895H20.2338H20.178H20.1223H20.0665H20.0109H19.9552H19.8996H19.844H19.7884H19.7329H19.6774H19.6219H19.5664H19.511H19.4556H19.4002H19.3449H19.2896H19.2343H19.179H19.1238H19.0686H19.0135H18.9584H18.9033H18.8482H18.7932H18.7382H18.6832H18.6283H18.5734H18.5186H18.4638H18.409H18.3542H18.2995H18.2449H18.1902H18.1356H18.081H18.0265H17.972H17.9176H17.8632H17.8088H17.7544H17.7001H17.6459H17.5917H17.5375H17.4833H17.4292H17.3752H17.3212H17.2672H17.2132H17.1594H17.1055H17.0517H16.9979H16.9442H16.8905H16.8369H16.7833H16.7297H16.6762H16.6228H16.5694H16.516H16.4627H16.4094H16.3562H16.303H16.2498H16.1967H16.1437H16.0907H16.0378H15.9849H15.932H15.8792H15.8265H15.7737H15.7211H15.6685H15.6159H15.5634H15.511H15.4586H15.4062H15.3539H15.3017H15.2495H15.1974H15.1453H15.0932H15.0413H14.9893H14.9375H14.8856H14.8339H14.7822H14.7305H14.6789H14.6274H14.5759H14.5245H14.4731H14.4218H14.3705H14.3193H14.2682H14.2171H14.1661H14.1151H14.0642H14.0133H13.9625H13.9118H13.8611H13.8105H13.76H13.7095H13.6591H13.6087H13.5584H13.5082H13.458H13.4079H13.3578H13.3079H13.2579H13.2081H13.1583H13.1085H13.0589H13.0093H12.9598H12.9103H12.8609H12.8115H12.7623H12.7131H12.6639H12.6149H12.5659H12.5169H12.4681H12.4193H12.3706H12.3219H12.2733H12.2248H12.1764H12.128H12.0797H12.0315H11.9833H11.9352H11.8872H11.8392H11.7914H11.7436H11.6958H11.6482H11.6006H11.5531H11.5057H11.4583C7.93029 47.7488 5.08331 44.9018 5.08331 41.3738C5.08331 37.8458 7.93029 34.9988 11.4583 34.9988Z" stroke="#ECECEC"/>
<path d="M45.8379 16.8874H45.8287C44.8044 16.8874 44.016 15.9615 44.1902 14.9532C44.7242 11.8778 47.1189 11.7701 47.1189 9.86111C47.1189 9.33174 47.0273 8.14465 45.7485 8.14465C45.0564 8.14465 44.6508 8.58695 44.4148 9.05674C44.0962 9.69382 43.3606 10.0055 42.6594 9.88403C41.596 9.69611 40.9429 8.55715 41.3944 7.57632C42.0406 6.17382 43.3606 4.70715 45.9731 4.70715C50.215 4.70715 50.7833 8.02778 50.7833 9.5907C50.7833 13.2826 48.0333 13.4201 47.465 15.5467C47.2587 16.3122 46.6308 16.8874 45.8379 16.8874ZM48.0402 20.7992C48.0585 22.0184 47.1808 23.0657 45.9227 23.0405C44.6623 23.068 43.7869 22.0184 43.8029 20.7992C43.7869 19.6076 44.6669 18.4984 45.9227 18.5328C47.1762 18.4984 48.0585 19.6076 48.0402 20.7992Z" fill="#DC7751"/>
<circle cx="25.2083" cy="15.9619" r="10.9583" stroke="#ECECEC"/>
</svg>
