<svg viewBox="0 0 55 56" xmlns="http://www.w3.org/2000/svg">
<path d="M32.8929 32.3096L28.4976 27.9142L47.8991 23.6028L50.4884 27.4858C50.4885 27.486 50.4886 27.4861 50.4888 27.4863C51.1748 28.5188 50.6335 29.9176 49.4315 30.2187C49.4314 30.2187 49.4313 30.2187 49.4313 30.2187L36.7701 33.3834C35.3796 33.7306 33.9075 33.3241 32.8929 32.3096Z" stroke="#ECECEC"/>
<path d="M47.625 31.7016V40.3609C47.625 42.1189 46.4999 43.6808 44.8321 44.236L44.8319 44.2361L34.5881 47.6507C32.4483 48.3639 30.227 48.7454 28 48.7951V28.8303L30.5904 31.419C30.5905 31.4191 30.5906 31.4192 30.5907 31.4193C31.6968 32.5277 33.0742 33.3304 34.5825 33.7476C36.0916 34.1673 37.6853 34.1866 39.2058 33.8059L47.625 31.7016Z" stroke="#ECECEC"/>
<path d="M20.411 47.5225L11.7348 44.6485C9.12804 43.7843 7.375 41.3644 7.375 38.6417V30.349L27 28.182V48.6599C24.7726 48.6106 22.551 48.2314 20.411 47.5225Z" stroke="#ECECEC"/>
<path d="M28.6648 24.8744L33.2855 20.2537L45.8205 23.0403L27.5 27.1116L9.17947 23.0403L21.7146 20.2537L26.3375 24.8744C26.3375 24.8744 26.3375 24.8745 26.3376 24.8745C26.9797 25.5165 28.0227 25.5165 28.6648 24.8744Z" stroke="#ECECEC"/>
<path d="M33.9006 17.8577H32.0833V8.691C32.0833 6.15871 30.0323 4.10767 27.5 4.10767C24.9677 4.10767 22.9166 6.15871 22.9166 8.691V17.8577H21.0993C20.0795 17.8577 19.5685 19.0929 20.2904 19.8147L26.691 26.2154C27.1379 26.6622 27.8643 26.6622 28.3112 26.2154L34.7118 19.8147C35.4314 19.0929 34.9204 17.8577 33.9006 17.8577Z" fill="#DC7751"/>
<path d="M4.56395 27.4107L4.56402 27.4106L7.10108 23.6028L26.6795 27.9536L24.2446 31.6089C23.3096 33.0114 21.6068 33.6955 19.9612 33.33C19.9612 33.33 19.9611 33.33 19.9611 33.33L5.66614 30.1539C4.43629 29.8796 3.8653 28.4586 4.56395 27.4107Z" fill="#465279" stroke="#ECECEC"/>
</svg>
