<svg viewBox="0 0 55 56" xmlns="http://www.w3.org/2000/svg">
<path d="M45.3333 41.3738C45.3333 44.8949 42.4795 47.7488 38.9583 47.7488H18.3333C14.8122 47.7488 11.9583 44.8949 11.9583 41.3738V13.8738C11.9583 10.3526 14.8122 7.49878 18.3333 7.49878H38.9583C42.4795 7.49878 45.3333 10.3526 45.3333 13.8738V41.3738Z" stroke="#ECECEC"/>
<path d="M31.5833 41.3738C31.5833 44.0942 33.0559 46.4704 35.2476 47.7488H11.4583C7.93716 47.7488 5.08331 44.8949 5.08331 41.3738V39.0821C5.08331 36.826 6.9105 34.9988 9.16665 34.9988H27.5C29.7561 34.9988 31.5833 36.826 31.5833 39.0821V41.3738Z" fill="#465279" stroke="#ECECEC"/>
<path d="M36.6667 20.2487H29.7917C28.8008 20.2487 28 19.4463 28 18.4571C28 17.4679 28.8008 16.6654 29.7917 16.6654H36.6667C37.6575 16.6654 38.4583 17.4679 38.4583 18.4571C38.4583 19.4463 37.6575 20.2487 36.6667 20.2487Z" stroke="#ECECEC"/>
<path d="M36.6667 29.4155H29.7917C28.8008 29.4155 28 28.613 28 27.6238C28 26.6346 28.8008 25.8322 29.7917 25.8322H36.6667C37.6575 25.8322 38.4583 26.6346 38.4583 27.6238C38.4583 28.613 37.6575 29.4155 36.6667 29.4155Z" stroke="#ECECEC"/>
<path d="M20.625 20.7487C21.8906 20.7487 22.9166 19.7227 22.9166 18.4571C22.9166 17.1914 21.8906 16.1654 20.625 16.1654C19.3593 16.1654 18.3333 17.1914 18.3333 18.4571C18.3333 19.7227 19.3593 20.7487 20.625 20.7487Z" fill="#DC7751"/>
<path d="M20.625 29.9155C21.8906 29.9155 22.9166 28.8895 22.9166 27.6238C22.9166 26.3582 21.8906 25.3322 20.625 25.3322C19.3593 25.3322 18.3333 26.3582 18.3333 27.6238C18.3333 28.8895 19.3593 29.9155 20.625 29.9155Z" fill="#DC7751"/>
</svg>
