<svg  viewBox="0 0 56 56" fill="none" xmlns="http://www.w3.org/2000/svg">
<path d="M17.7823 43.1667H32.5617C34.7713 43.1667 36.7908 41.9184 37.779 39.942L38.038 39.4229C39.3225 36.855 37.4547 33.8334 34.5835 33.8334H17.5C16.2108 33.8334 15.1667 32.7892 15.1667 31.5V30.3334H12.25L11.0822 33.187C9.13384 37.9494 12.6373 43.1667 17.7823 43.1667Z" fill="#C1272D"/>
<path d="M7.10852 31.5H37.3334V22.1666H11.7752L7.10852 31.5Z" fill="#C1272D"/>
<path d="M40.0552 10.5H28.2683C24.1897 10.5 20.4808 12.8613 18.7553 16.5562L17.2235 19.8333H43.1667C43.8107 19.8333 44.3333 20.356 44.3333 21C44.3333 21.644 43.8107 22.1667 43.1667 22.1667H16.1338L11.774 31.5H36.9437C42.1237 31.5 46.795 28.3862 48.7888 23.6052C51.3881 17.3717 46.809 10.5 40.0552 10.5Z" fill="#C1272D"/>
</svg>
