<svg viewBox="0 0 105 104" fill="none" xmlns="http://www.w3.org/2000/svg">
<g clip-path="url(#clip0_3680_4626)">
<g filter="url(#filter0_bd_3680_4626)">
<path d="M36.4569 19.4831C36.0555 19.4934 35.6595 19.5781 35.2889 19.7327C35.2889 19.7327 29.0599 22.2721 23.1861 29.1738C17.3122 36.0755 11.5783 47.5094 11.5783 65C11.578 65.1586 11.5893 65.317 11.6122 65.4739C11.5305 67.9404 11.9454 70.3981 12.8322 72.7011C13.7189 75.0041 15.0595 77.1053 16.7742 78.8801C18.489 80.6548 20.5429 82.0668 22.8141 83.0323C25.0852 83.9977 27.5272 84.4968 29.995 84.5C34.8794 84.5 39.5637 82.5597 43.0175 79.1059C46.4713 75.6521 48.4117 70.9677 48.4117 66.0833C48.4117 61.1989 46.4713 56.5146 43.0175 53.0608C39.5637 49.607 34.8794 47.6666 29.995 47.6666C26.291 47.6677 22.6733 48.7856 19.6144 50.8743C21.4967 42.8505 24.843 37.2594 28.1372 33.3887C33.0968 27.5612 37.701 25.7672 37.701 25.7672C38.4165 25.4929 39.0121 24.9745 39.3825 24.3037C39.753 23.6329 39.8746 22.8528 39.7257 22.1011C39.5769 21.3494 39.1673 20.6745 38.5692 20.1954C37.9711 19.7164 37.223 19.4641 36.4569 19.4831ZM81.9569 19.4831C81.5555 19.4934 81.1595 19.5781 80.7889 19.7327C80.7889 19.7327 74.5599 22.2721 68.6861 29.1738C62.8123 36.0755 57.0783 47.5094 57.0783 65C57.078 65.1586 57.0893 65.317 57.1122 65.4739C57.0305 67.9404 57.4454 70.3981 58.3322 72.7011C59.2189 75.0041 60.5595 77.1053 62.2743 78.8801C63.989 80.6548 66.0429 82.0668 68.3141 83.0323C70.5852 83.9977 73.0272 84.4968 75.495 84.5C80.3794 84.5 85.0638 82.5597 88.5175 79.1059C91.9713 75.6521 93.9117 70.9677 93.9117 66.0833C93.9117 61.1989 91.9713 56.5146 88.5175 53.0608C85.0638 49.607 80.3794 47.6666 75.495 47.6666C71.791 47.6677 68.1733 48.7856 65.1145 50.8743C66.9967 42.8505 70.343 37.2594 73.6372 33.3887C78.5968 27.5612 83.2011 25.7672 83.2011 25.7672C83.9165 25.4929 84.5121 24.9745 84.8826 24.3037C85.253 23.6329 85.3746 22.8528 85.2258 22.1011C85.0769 21.3494 84.6673 20.6745 84.0692 20.1954C83.4711 19.7164 82.723 19.4641 81.9569 19.4831Z" fill="#CBCBCB"/>
</g>
</g>
<defs>
<filter id="filter0_bd_3680_4626" x="-28.4217" y="-20.5179" width="162.333" height="165.018" filterUnits="userSpaceOnUse" color-interpolation-filters="sRGB">
<feFlood flood-opacity="0" result="BackgroundImageFix"/>
<feGaussianBlur in="BackgroundImage" stdDeviation="20"/>
<feComposite in2="SourceAlpha" operator="in" result="effect1_backgroundBlur_3680_4626"/>
<feColorMatrix in="SourceAlpha" type="matrix" values="0 0 0 0 0 0 0 0 0 0 0 0 0 0 0 0 0 0 127 0" result="hardAlpha"/>
<feOffset dy="20"/>
<feGaussianBlur stdDeviation="20"/>
<feColorMatrix type="matrix" values="0 0 0 0 0.137302 0 0 0 0 0.129776 0 0 0 0 0.129776 0 0 0 0.15 0"/>
<feBlend mode="normal" in2="effect1_backgroundBlur_3680_4626" result="effect2_dropShadow_3680_4626"/>
<feBlend mode="normal" in="SourceGraphic" in2="effect2_dropShadow_3680_4626" result="shape"/>
</filter>
<clipPath id="clip0_3680_4626">
<rect width="104" height="104" fill="white" transform="translate(0.744995)"/>
</clipPath>
</defs>
</svg>
