<svg viewBox="0 0 77 78" fill="none" xmlns="http://www.w3.org/2000/svg">
<path d="M68.82 66.8153C63.7533 66.9436 58.56 67.0238 53.3191 67.0559C51.6883 62.869 50.77 59.7409 48.7591 54.6236C47.4291 51.2549 44.8483 46.5226 43.645 43.5067C41.5075 38.1488 39.2591 33.2721 38.6258 31.7321C37.8183 33.6411 37.1691 35.9992 36.3458 37.8601C35.6491 39.4642 34.715 41.678 34.0025 43.2661C32.6883 46.2659 31.9125 47.5332 30.6616 50.5971C30.155 51.8644 28.8408 54.2546 28.35 55.554C29.6325 55.6182 30.6933 55.7144 33.5116 55.7305C33.8758 55.7305 35.9658 55.6021 37.1375 55.6021C38.4358 55.6021 38.4358 55.5059 39.1008 55.5059C40.32 59.5003 42.0616 61.4092 43.7875 67.0559C31.8808 67.0238 19.8633 66.7992 8.43164 66.5265C9.55581 63.7513 12.8016 56.2759 15.5566 49.3298C18.4858 41.9026 19.7841 38.983 20.6075 36.689C21.32 34.6678 23.2991 30.2563 24.0116 28.2351C26.1175 22.3157 28.1441 16.9578 30.6616 11.2148H47.73C48.5691 14.7921 49.9941 18.7865 51.1816 21.674C53.3508 26.9357 54.3641 30.7215 56.1375 35.0848C56.6916 36.4484 57.7525 39.5765 58.3225 40.924C60.08 45.0146 60.9191 46.7632 62.3441 50.9821C63.2783 53.7734 64.0066 55.3776 65.0833 58.1207C65.7958 59.9174 68.1075 65.0186 68.82 66.8153Z" fill="#D6E5E5"/>
<path d="M53.3191 67.0559C50.1525 67.072 46.9858 67.072 43.7875 67.0559C42.0616 61.4093 40.32 59.5003 39.1008 55.5059C38.4358 55.5059 38.4358 55.6022 37.1375 55.6022C35.9658 55.6022 33.8758 55.7305 33.5116 55.7305C30.6933 55.7145 29.6325 55.6182 28.35 55.5541C28.8408 54.2547 30.155 51.8645 30.6616 50.5972C31.9125 47.5332 32.6883 46.2659 34.0025 43.2661C34.715 41.678 35.6491 39.4643 36.3458 37.8601C37.1691 35.9993 37.8183 33.6411 38.6258 31.7322C39.2591 33.2722 41.5075 38.1488 43.645 43.5068C44.8483 46.5226 47.4291 51.2549 48.7591 54.6236C50.77 59.7409 51.6883 62.8691 53.3191 67.0559Z" fill="#ED2224"/>
<path d="M68.82 66.8153C68.1075 65.0186 65.7958 59.9174 65.0833 58.1207C64.0066 55.3776 63.2783 53.7734 62.3441 50.9821C60.9191 46.7632 60.08 45.0146 58.3225 40.924C57.7525 39.5765 56.6916 36.4484 56.1375 35.0849C54.3641 30.7215 53.3508 26.9357 51.1816 21.674C49.9941 18.7865 48.5691 14.7922 47.73 11.2149H55.9158C58.3225 11.2149 65.6691 10.8138 68.0441 11.1347C67.8383 22.2836 68.3925 29.0051 68.1391 40.2984C68.0758 42.5924 68.44 47.1963 68.4083 49.4742C68.3291 55.1049 68.9783 61.6017 68.82 66.8153Z" fill="#ED2224"/>
<path d="M30.6616 11.2148C28.1441 16.9578 26.1175 22.3157 24.0116 28.2351C23.2991 30.2563 21.32 34.6678 20.6075 36.689C19.7841 38.983 18.4858 41.9026 15.5566 49.3298C12.8016 56.2759 9.55581 63.7513 8.43164 66.5265C8.71664 62.7567 8.89081 58.4094 8.79581 54.6717C8.41581 41.2128 9.93581 29.0371 9.00164 15.5942C8.89081 14.0061 8.96997 11.2951 8.96997 11.2951C8.96997 11.2951 13.055 11.2309 15.2716 11.2148C15.2716 11.2148 30.6616 11.2148 30.6616 11.2148Z" fill="#ED2224"/>
<path d="M69.6069 66.764C69.7177 62.9044 69.4564 59.0463 69.306 55.1915C69.1746 51.8067 69.2237 48.4219 69.0669 45.0371C68.907 41.5866 68.9925 38.1569 69.0004 34.7031C69.0084 31.1082 68.9387 27.5148 68.8754 23.9215C68.8009 19.6608 68.7661 15.4018 68.8437 11.1411C68.8516 10.6679 68.47 10.3936 68.052 10.339C65.5963 10.0198 63.0392 10.2155 60.5724 10.2877C57.6163 10.3743 54.6681 10.4096 51.7104 10.4112C47.7838 10.4128 41.2557 10.4112 36.2001 10.4096C32.2497 10.408 29.197 10.408 28.988 10.408C24.4185 10.408 19.8506 10.408 15.2811 10.4096C13.1769 10.4224 11.0742 10.4593 8.96994 10.501C8.53294 10.5091 8.19094 10.862 8.17827 11.3031C8.10386 13.9837 8.30652 16.637 8.40944 19.3143C8.55986 23.1996 8.53452 27.0881 8.43636 30.9734C8.24319 38.675 7.79827 46.3734 7.98511 54.0798C8.08486 58.2042 7.94869 62.3204 7.63836 66.4335C7.55761 66.7768 7.72227 67.0319 7.98827 67.1618C8.12127 67.2517 8.27169 67.3174 8.42527 67.3222C24.1335 67.6976 39.8465 67.9735 55.5595 67.842C59.9786 67.8051 64.3961 67.7329 68.812 67.619C68.9814 67.6142 69.1271 67.5484 69.2538 67.4586C69.5087 67.3303 69.6654 67.088 69.6069 66.764ZM59.4419 11.9255C62.0116 11.8453 64.6732 11.648 67.2524 11.879C67.1495 19.0272 67.3949 26.1689 67.4139 33.3155C67.4234 36.8318 67.273 40.3466 67.4266 43.8613C67.5723 47.1546 67.5659 50.4416 67.6689 53.7349C67.7639 56.8069 67.957 59.8789 68.0219 62.9525C67.3585 61.4446 66.6888 59.9383 66.0586 58.4159C64.5133 54.6862 63.2466 50.8683 61.7884 47.1065C60.4884 43.7538 59.2645 41.1599 58.039 37.7767C56.7375 34.185 55.1067 29.9564 53.821 26.3582C52.1126 21.581 49.9371 16.9915 48.7069 12.0507C52.2868 12.0555 55.8667 12.0362 59.4419 11.9255ZM29.4773 12.0138C27.6596 16.2295 25.9718 20.4982 24.4011 24.8134C23.0854 28.4308 21.5954 31.9536 20.1942 35.5357C17.7131 41.8769 15.2004 48.2102 12.6053 54.5049C11.5634 57.0315 10.4947 59.5452 9.43227 62.0638C9.64127 55.9856 9.45127 49.9106 9.60802 43.8228C9.80594 36.1725 10.2509 28.5222 10.0419 20.8672C9.96111 17.938 9.72836 15.0248 9.75686 12.0956C11.5967 12.0603 13.4365 12.0266 15.2779 12.0154C20.0121 12.0106 24.7447 12.0122 29.4773 12.0138ZM44.3369 66.2651C43.6972 64.2888 42.9356 62.3654 42.0442 60.4885C41.2367 58.7865 40.426 57.1069 39.8655 55.3006C39.761 54.9637 39.4586 54.7103 39.1024 54.7119C37.3116 54.7231 35.5129 54.8835 33.7206 54.9284C32.3241 54.9621 30.9244 54.8867 29.5279 54.8145C30.1391 53.4703 30.8611 52.1757 31.4279 50.8121C32.2529 48.8246 33.2124 46.906 34.1149 44.9537C35.0348 42.9662 35.866 40.9369 36.7416 38.9301C37.4731 37.2537 38.032 35.5148 38.6654 33.8032C39.4681 35.6576 40.293 37.5024 41.0831 39.3616C42.4242 42.517 43.6877 45.6772 45.1839 48.762C46.6865 51.8613 48.0814 54.9605 49.2705 58.1977C50.2538 60.8751 51.1737 63.5765 52.1807 66.2458C49.5666 66.2571 46.9525 66.2731 44.3369 66.2651ZM53.8638 66.2378C52.7919 63.4337 51.8355 60.5879 50.8 57.7694C49.6379 54.606 48.3031 51.5565 46.8338 48.5278C45.3486 45.4655 44.0566 42.3518 42.7345 39.214C41.6499 36.6393 40.4672 34.1048 39.3969 31.5252C39.1736 30.9862 38.2521 30.6157 37.9497 31.3344C37.0108 33.5657 36.3458 35.8982 35.3768 38.1184C34.4584 40.223 33.5876 42.3502 32.6154 44.4324C31.7446 46.298 30.8358 48.1364 30.0441 50.0389C29.2952 51.8404 28.3009 53.528 27.5852 55.3455C27.3841 55.8557 27.886 56.3401 28.3484 56.361C30.1359 56.4396 31.9299 56.5775 33.7206 56.5326C35.3293 56.4925 36.9395 56.3706 38.5482 56.3353C39.6961 59.7345 41.4742 62.8643 42.668 66.2523C35.6713 66.2202 28.6729 66.1335 21.6778 66.0036C17.6498 65.9282 13.6218 65.8384 9.59377 65.7437C12.591 58.3934 15.6548 51.0704 18.6457 43.7153C19.5514 41.4887 20.5029 39.275 21.3263 37.0147C22.4679 33.8818 23.9119 30.8724 25.0313 27.7298C26.9218 22.428 28.9279 17.1712 31.1778 12.0138C33.6367 12.0138 36.0972 12.0138 38.5561 12.0138C39.8608 12.0138 41.167 12.0186 42.4733 12.0234C44.0059 12.0298 45.5386 12.0378 47.0713 12.0426C47.0729 12.0539 47.0697 12.0635 47.0729 12.0747C48.1527 16.6209 50.0859 20.8238 51.7089 25.1808C53.0848 28.8752 54.6792 33.2513 56.0519 36.9473C57.3012 40.3081 58.3874 42.9293 59.7459 46.2451C61.3086 50.0582 62.5895 53.9852 64.1174 57.8159C65.2226 60.5847 66.4829 63.2845 67.6245 66.0373C63.0376 66.1464 58.4507 66.2057 53.8638 66.2378Z" fill="black"/>
</svg>
