<svg  viewBox="0 0 77 78" fill="none" xmlns="http://www.w3.org/2000/svg">
<path d="M30.3766 51.8516H33.7175V64.6849C33.7175 66.4495 32.2925 67.8933 30.5508 67.8933H24.2175C22.4758 67.8933 21.0508 66.4495 21.0508 64.6849V51.8516H8.20997C5.80331 51.8516 4.28331 49.2208 5.43914 47.0872L24.6133 12.0041C25.8166 9.80641 28.9516 9.80641 30.155 12.0041L37.8341 27.6287L27.6058 47.0872C26.45 49.2208 27.97 51.8516 30.3766 51.8516Z" fill="#1DE9B6"/>
<path d="M68.7249 51.8516H55.8841V64.6849C55.8841 66.4495 54.4591 67.8933 52.7174 67.8933H46.3841C44.6424 67.8933 43.2174 66.4495 43.2174 64.6849V51.8516H46.5583C48.9649 51.8516 50.4849 49.2208 49.3291 47.0872L38.9424 27.6287L46.7799 12.0041C47.9833 9.80641 51.1183 9.80641 52.3216 12.0041L71.4958 47.0872C72.6516 49.2208 71.1316 51.8516 68.7249 51.8516Z" fill="#26A69A"/>
</svg>
