<svg viewBox="0 0 78 78" fill="none" xmlns="http://www.w3.org/2000/svg">
<path d="M50.4573 17.4974C50.337 16.3996 49.8257 15.8582 48.7428 15.6175C47.2991 15.3017 45.7952 15.3619 44.3514 15.5424C43.7499 15.6175 43.1483 15.7078 42.5468 15.8281C42.4114 15.9935 42.2159 16.1138 41.9302 16.1439C41.494 16.189 41.088 16.3545 40.6519 16.4146C40.6519 16.9259 40.6218 17.4373 40.5616 17.9486H43.5995C44.1108 17.9486 44.5018 18.2644 44.562 18.7758C45.4643 25.2726 44.562 31.8146 44.2612 38.3265C43.9604 44.6881 43.9604 51.0496 43.9604 57.4111C44.2161 57.4863 44.4417 57.6818 44.5319 57.9826C44.547 57.9826 44.547 57.9826 44.562 57.9976C44.6372 58.0277 44.8327 58.0428 44.938 58.0578C45.3891 58.1029 45.8403 58.1029 46.2915 58.0879C46.893 58.0578 47.4796 57.9976 48.0811 57.9676C48.8932 54.5236 48.2616 50.9744 48.4571 47.4703C48.5774 45.2144 48.8481 43.0488 49.2091 40.808C49.4647 39.1537 49.6001 37.5445 49.6602 35.8902C49.6452 35.8 49.6452 35.6947 49.6753 35.5894C49.6903 34.9879 49.7053 34.4013 49.7053 33.7998V26.6562C49.7053 25.0922 49.8858 23.6033 50.1264 22.0543C50.3219 20.5804 50.6227 19.0164 50.4573 17.4974Z" fill="#D6E5E5"/>
<path d="M39.1479 54.2528C39.0727 49.5005 38.3509 44.7782 37.7643 40.071C37.6139 38.8528 37.3583 37.5745 37.3583 36.3564C37.3583 35.5292 37.3884 34.687 37.3733 33.8599C37.3432 32.1304 37.268 30.1753 36.3356 28.6564C35.4634 27.2277 33.9745 26.1148 32.3052 25.8591C30.7261 25.6185 29.1319 26.0095 27.6731 26.596C24.5149 27.8743 21.7778 29.9497 18.7249 31.4085C18.6196 31.4536 18.5294 31.4837 18.4241 31.4987C18.0481 31.7995 17.4466 31.8597 17.0706 31.3634C16.8149 31.0325 16.5292 30.6114 16.1081 30.4761C15.9577 30.4159 15.7471 30.446 15.5817 30.4761C15.6719 30.461 15.8675 30.1753 15.6719 30.3558C15.296 30.7318 14.92 31.1228 14.544 31.5138C14.0628 32.0402 13.5514 32.5665 13.1454 33.153C13.0852 33.2433 13.0401 33.3034 12.98 33.4087V33.4237C12.98 33.4989 12.9499 33.5591 12.9198 33.6343C12.9499 33.7245 12.9649 33.8148 12.9649 33.905C14.0778 34.8525 14.544 36.5068 14.8298 37.8603C15.3561 40.3417 15.5216 42.8683 15.5968 45.3948C15.7171 49.6058 15.4464 53.8017 15.4012 58.0126C17.2661 58.1931 19.176 58.163 21.0259 57.8171C20.6348 54.7341 19.7024 51.7413 19.1309 48.6884C18.5444 45.5452 18.2136 42.1163 19.4919 39.0935C20.6348 36.3864 23.1614 34.4013 25.703 33.0478C28.0942 31.7694 31.463 30.8821 32.9067 33.92C34.2753 36.8075 33.5835 40.462 33.2827 43.4999C33.1022 45.3196 33.1323 47.1243 33.0872 48.9441C33.012 51.3052 32.9669 53.6663 33.1473 56.0275C33.1473 56.0726 33.1473 56.1026 33.1473 56.1478C33.4632 56.238 33.8993 56.2982 34.185 56.3282C34.8468 56.4034 35.4934 56.4335 36.1552 56.4485C37.1628 56.4636 38.1704 56.4335 39.163 56.4185C39.163 55.7267 39.163 54.9898 39.1479 54.2528Z" fill="#FEBF10"/>
<path d="M60.2778 24.25C60.1424 24.25 60.0221 24.2199 59.9169 24.1898C58.1723 25.6937 57.3001 28.0248 55.9466 29.8445C55.1495 30.8972 54.2471 31.8748 53.405 32.8974C52.6981 33.7547 51.886 34.672 51.51 35.7398C51.495 36.5519 51.4649 37.349 51.3897 38.1461C51.2093 40.1312 50.8032 42.0863 50.5325 44.0715C50.6829 44.0715 50.8333 44.1166 50.9837 44.2068C51.4348 44.4775 51.51 44.9588 51.3747 45.3498C51.4649 45.6355 51.5552 45.9062 51.6604 46.1769C51.9311 46.9138 52.2319 47.6357 52.5477 48.3726C53.0741 49.6209 53.6005 50.8541 54.0516 52.1324C54.5479 53.5461 54.563 56.3133 56.4278 56.6291C57.9618 56.8847 59.5258 56.6742 61.0899 56.5388C61.0899 56.4336 61.1049 56.3283 61.1501 56.223C60.9546 55.9373 60.8192 55.5914 60.6688 55.2756C60.3079 54.4484 59.977 53.6062 59.6612 52.764C59.2551 51.6662 58.8341 50.5683 58.5182 49.4554C58.0971 47.9515 57.2249 46.5679 56.5331 45.1844C55.8112 43.7406 54.954 42.0412 55.0292 40.3719C55.1044 38.5672 56.1571 37.0482 57.3151 35.7398C58.5032 34.4164 59.7364 33.1832 60.8493 31.7845C62.0374 30.3107 63.3307 28.897 64.3835 27.3179C64.8797 26.5961 65.2106 25.814 65.6016 25.032C65.6317 24.9869 65.6768 24.8967 65.7069 24.8064C63.9172 24.3101 62.1126 24.25 60.2778 24.25Z" fill="#D6E5E5"/>
<path d="M70.5194 26.4757C67.3161 19.9488 61.2553 14.8205 54.8487 11.5871C48.412 8.32358 40.9677 6.60913 33.779 7.7521C21.9132 9.63198 10.4083 18.3246 7.0245 29.9949C7.0245 30.1302 6.99442 30.2505 6.91923 30.3859C6.85907 30.5964 6.79891 30.822 6.7538 31.0326C6.6786 31.183 6.60341 31.3334 6.54325 31.4988C6.52821 31.6341 6.49813 31.7845 6.48309 31.9048C6.34774 32.5214 6.18231 33.1381 6.07704 33.7547C5.86649 34.9127 5.91161 36.1158 5.50555 37.2136C5.47548 37.5295 5.43036 37.8453 5.38524 38.1611C5.38524 38.2062 5.38524 38.2363 5.38524 38.2664C5.31005 38.9281 5.24989 39.5898 5.18973 40.2515C5.06942 41.6351 5.00927 43.0187 5.0243 44.4023C5.06942 47.1244 5.38524 49.8465 6.062 52.4783C7.3704 57.4863 9.89696 62.2236 13.8823 65.6074C16.6194 67.9385 19.8227 69.4724 23.2667 70.465C27.0264 71.5629 30.9366 72.1795 34.8618 72.1945C42.6069 72.2096 50.3821 70.1041 56.7587 65.6224C68.5493 57.3209 77.4374 40.5373 70.5194 26.4757ZM40.1255 58.2383C38.6516 58.2383 37.1778 58.3285 35.704 58.2683C34.3505 58.2232 32.8014 58.2082 31.6434 57.4111C31.2524 57.1404 31.2223 56.7494 31.3878 56.4336C31.3577 56.3584 31.3427 56.2832 31.3427 56.1929C31.087 52.9746 31.2975 49.7562 31.3427 46.5379C31.3577 44.4174 31.6434 42.3269 31.7938 40.2215C31.9292 38.3416 32.3954 33.2734 29.2973 33.6494C27.9138 33.8148 26.6054 34.5517 25.4774 35.3187C24.4247 36.0256 23.387 36.8076 22.4847 37.6949C19.9581 40.1914 20.2438 44.4925 20.7852 47.6658C21.3868 51.2752 22.5749 54.7943 22.9358 58.4638C22.9659 58.8398 22.7102 59.291 22.3343 59.3812C19.7024 60.0129 17.0255 60.0429 14.3485 59.7121C13.9725 59.667 13.6266 59.276 13.6266 58.9C13.6417 54.4484 13.9575 49.9968 13.8222 45.5453C13.747 43.109 13.6567 40.5974 13.1003 38.2213C12.9048 37.4091 12.6341 36.4466 12.2731 35.8451C12.0475 35.4841 12.0175 35.424 11.7768 35.2285C11.6866 35.1533 11.7016 35.1533 11.7016 35.1533C11.7016 35.1533 11.6716 35.1533 11.5663 35.0931C11.5513 35.0931 11.5362 35.0781 11.5362 35.0781C11.4761 35.0631 11.4159 35.048 11.3557 35.048C10.5286 34.9127 10.4835 33.9802 10.9347 33.514C11.0099 33.3336 11.1302 33.2132 11.2204 33.0328C11.2806 32.9275 11.3257 32.732 11.4009 32.6117C11.8671 31.7545 12.5739 31.0326 13.2206 30.3257C13.8071 29.7091 14.3936 28.8519 15.2659 28.7015C16.454 28.491 17.3263 28.9572 18.0632 29.7392C18.0932 29.7242 18.1083 29.7091 18.1384 29.6941C19.5972 29.0023 20.9807 28.115 22.3794 27.3029C25.2518 25.6185 28.4852 23.7537 31.9292 23.9943C35.6138 24.25 38.3057 27.1525 38.9374 30.6716C39.2532 32.4312 39.193 34.2209 39.193 36.0105C39.193 38.3265 39.7044 40.7177 39.9901 43.0187C40.2909 45.3949 40.6218 47.7861 40.8022 50.1773C40.9827 52.5385 40.9827 54.8996 40.9827 57.2607C40.9677 57.742 40.6518 58.2383 40.1255 58.2383ZM67.2108 25.814C66.8499 26.5359 66.5491 27.2578 66.113 27.9345C65.0602 29.5437 63.812 30.9875 62.6089 32.4613C62.0675 33.138 61.5712 33.8449 60.9696 34.4765C60.368 35.1232 59.7364 35.7398 59.1348 36.3865C58.0671 37.5445 56.6534 39.0183 56.8489 40.7328C57.0444 42.4322 57.9618 44.0263 58.7288 45.5302C59.3604 46.7634 59.9319 47.9816 60.368 49.305C60.7591 50.5232 61.2102 51.7263 61.6614 52.9144C61.887 53.5009 62.1126 54.0875 62.3682 54.659C62.4434 54.8394 62.5337 55.0199 62.5637 55.065C62.6389 55.1853 62.654 55.2304 62.6389 55.2304C62.8044 55.4109 62.8645 55.6365 62.8796 55.8621C62.9848 55.9222 63.0751 55.9674 63.0751 55.9674C63.2255 56.1027 63.3307 56.223 63.4059 56.4185C63.5112 56.7043 63.5262 56.975 63.5262 57.2758C63.5262 57.742 63.2104 58.2383 62.6991 58.2383C61.4057 58.2533 60.1124 58.4187 58.804 58.4789C57.6911 58.524 56.3376 58.6293 55.2999 58.148C54.1419 57.6066 53.435 56.5689 53.0741 55.3508C52.8936 54.7642 52.7733 54.1627 52.6229 53.5611C52.4876 53.0799 52.277 52.6287 52.1417 52.1625C51.6755 50.5683 50.8934 49.0644 50.2768 47.5154C50.2317 48.9742 50.2768 50.433 50.3219 51.8918C50.3971 54.283 50.3821 56.6892 49.6903 59.0053C49.585 59.3812 49.2993 59.7271 48.8782 59.7271C47.4796 59.7422 43.6446 60.5844 42.9077 58.7947C42.5317 58.7646 42.1858 58.4939 42.1858 57.9976C42.1858 51.4857 42.1557 44.9588 42.4866 38.4468C42.8024 32.2207 43.6145 25.9494 42.8927 19.7232H39.554C39.0276 19.7232 38.411 19.257 38.5915 18.6554C38.8321 17.8433 38.8772 17.0312 38.8772 16.189C38.8772 15.7228 39.178 15.407 39.5239 15.3017C39.569 15.1062 39.6743 14.9257 39.8548 14.7904C40.0804 14.0685 40.727 13.7076 41.494 14.1888C42.4415 13.9332 43.4341 13.7978 44.3966 13.6925C45.9757 13.5271 47.6901 13.4369 49.2391 13.858C50.3971 14.2039 51.5251 14.8054 51.9612 16.0085C52.4425 17.347 52.3071 18.881 52.1567 20.2646C51.9913 21.8136 51.6755 23.3627 51.5251 24.9117C51.3296 26.942 51.48 29.0474 51.48 31.0927C51.48 31.4988 51.48 31.9048 51.495 32.3259C52.4876 31.0777 53.6606 29.9197 54.578 28.6414C56.1421 26.5058 57.1497 23.874 59.3905 22.2949C59.8266 21.9941 60.2628 22.1295 60.5335 22.4453C62.0524 22.4302 63.7368 22.355 65.1805 22.7611C65.9626 22.9867 67.3762 23.092 67.6319 24.0545C67.8124 24.6861 67.4815 25.2726 67.2108 25.814Z" fill="#4B7BB2"/>
<path d="M70.4743 23.3326C66.6844 17.2568 60.5635 12.5646 54.1268 9.55677C47.6149 6.51888 40.1555 5.12025 33.027 6.35345C20.7251 8.489 8.97958 17.5876 5.53563 29.7693C5.03934 30.5964 4.96415 31.7394 4.7536 32.6568C4.60321 33.3035 4.49794 33.9652 4.4077 34.6269C4.39266 34.6871 4.39266 34.7623 4.37762 34.8224C4.36259 34.8675 4.34755 34.8976 4.34755 34.9427C4.22723 35.5744 4.12196 36.206 4.03173 36.8376C4.03173 36.8527 4.01669 36.8527 4.01669 36.8677C3.94149 37.0482 3.92645 37.2136 3.95653 37.349C3.80614 38.5671 3.70087 39.7853 3.61063 41.0035C3.49032 42.7179 3.47528 44.4474 3.56552 46.1619C3.76102 49.5156 4.4077 52.8543 5.56571 56.0125C7.86669 62.2988 12.4085 67.5173 18.5143 70.3447C21.9884 71.9388 25.8534 72.8562 29.6282 73.3525C33.4632 73.8488 37.3733 73.8187 41.2083 73.2623C48.8632 72.1494 56.0218 68.7957 61.6764 63.517C67.1507 58.4187 71.4518 51.8466 73.4219 44.5978C75.4071 37.3791 74.4596 29.7242 70.4743 23.3326ZM56.7436 65.6375C50.3671 70.1191 42.5919 72.2246 34.8468 72.2095C30.9216 72.1945 27.0114 71.5779 23.2516 70.48C19.8077 69.4724 16.6044 67.9535 13.8673 65.6224C9.88192 62.2386 7.35536 57.5013 6.04696 52.4933C5.35516 49.8615 5.05438 47.1394 5.00926 44.4173C4.97919 43.0337 5.03934 41.6502 5.17469 40.2666C5.23485 39.6048 5.29501 38.9431 5.3702 38.2814C5.3702 38.2513 5.3702 38.2062 5.3702 38.1761C5.41532 37.8603 5.46044 37.5445 5.49051 37.2287C5.89657 36.1308 5.85145 34.9126 6.062 33.7697C6.18231 33.1531 6.3327 32.5365 6.46805 31.9199C6.49813 31.7996 6.51317 31.6642 6.52821 31.5138C6.58837 31.3634 6.66356 31.198 6.73876 31.0476C6.79891 30.8371 6.84403 30.6115 6.90419 30.4009C6.97938 30.2656 7.0245 30.1302 7.00946 30.0099C10.4083 18.3396 21.8981 9.63197 33.7639 7.76712C40.9677 6.62415 48.3969 8.33861 54.8337 11.6021C61.2403 14.8355 67.286 19.9788 70.5044 26.4908C77.4374 40.5373 68.5493 57.3209 56.7436 65.6375Z" fill="black"/>
<path d="M40.7721 50.1923C40.5917 47.8011 40.2458 45.4099 39.96 43.0337C39.6743 40.7328 39.1479 38.3416 39.163 36.0255C39.163 34.2359 39.2231 32.4613 38.9073 30.6867C38.2757 27.1675 35.5837 24.265 31.8991 24.0093C28.4552 23.7687 25.2218 25.6336 22.3493 27.3179C20.9507 28.13 19.5821 29.0173 18.1083 29.7091C18.0782 29.7242 18.0632 29.7392 18.0331 29.7543C17.2962 28.9873 16.4239 28.506 15.2358 28.7166C14.3636 28.867 13.762 29.7242 13.1905 30.3408C12.5288 31.0476 11.822 31.7695 11.3708 32.6267C11.2956 32.7621 11.2505 32.9576 11.1903 33.0478C11.1001 33.2283 10.9647 33.3486 10.9046 33.5291C10.4534 33.9953 10.4985 34.9277 11.3257 35.063C11.3858 35.0781 11.446 35.0781 11.5061 35.0931C11.5212 35.0931 11.5212 35.1082 11.5362 35.1082C11.6415 35.1533 11.6716 35.1683 11.6716 35.1683C11.6716 35.1683 11.6565 35.1683 11.7468 35.2435C11.9874 35.439 12.0175 35.4992 12.2431 35.8601C12.604 36.4617 12.8897 37.4242 13.0702 38.2363C13.6267 40.6125 13.7169 43.124 13.7921 45.5603C13.9274 50.0269 13.5966 54.4634 13.5966 58.915C13.5966 59.291 13.9575 59.682 14.3184 59.7271C16.9954 60.0429 19.6874 60.0279 22.3042 59.3962C22.6802 59.306 22.9358 58.8398 22.9057 58.4788C22.5599 54.8244 21.3718 51.3052 20.7552 47.6808C20.2138 44.4925 19.928 40.2064 22.4546 37.7099C23.3569 36.8076 24.3946 36.0255 25.4474 35.3337C26.5903 34.5668 27.8837 33.8298 29.2673 33.6644C32.3653 33.2884 31.8991 38.3566 31.7638 40.2365C31.6134 42.357 31.3427 44.4324 31.3126 46.5529C31.2825 49.7712 31.0569 52.9896 31.3126 56.208C31.3126 56.2982 31.3427 56.3734 31.3577 56.4486C31.1923 56.7644 31.2223 57.1554 31.6134 57.4261C32.7714 58.2232 34.3204 58.2232 35.6739 58.2833C37.1477 58.3435 38.6216 58.2533 40.0954 58.2533C40.6067 58.2533 40.9225 57.7419 40.9225 57.2908C40.9677 54.9146 40.9526 52.5384 40.7721 50.1923ZM36.1552 56.4937C35.4934 56.4787 34.8317 56.4486 34.185 56.3734C33.8993 56.3433 33.4632 56.2831 33.1473 56.1929C33.1473 56.1478 33.1473 56.1177 33.1473 56.0726C32.9669 53.7115 33.012 51.3503 33.0872 48.9892C33.1323 47.1695 33.1022 45.3498 33.2827 43.5451C33.5835 40.4921 34.2753 36.8527 32.9067 33.9652C31.463 30.9273 28.0942 31.8146 25.703 33.0929C23.1614 34.4464 20.6349 36.4316 19.4919 39.1386C18.2136 42.1615 18.5444 45.5904 19.1309 48.7335C19.7024 51.7865 20.6349 54.7792 21.0259 57.8622C19.1761 58.2232 17.2661 58.2382 15.4013 58.0578C15.4313 53.8468 15.7171 49.6509 15.5968 45.44C15.5216 42.9134 15.3561 40.3869 14.8298 37.9054C14.544 36.5369 14.0778 34.8976 12.9649 33.9502C12.9649 33.8599 12.9499 33.7697 12.9198 33.6794C12.9499 33.6193 12.98 33.5441 12.98 33.4689V33.4539C13.0251 33.3486 13.0702 33.2884 13.1454 33.1982C13.5665 32.6117 14.0628 32.0853 14.544 31.5589C14.905 31.1679 15.2809 30.7769 15.672 30.4009C15.8524 30.2054 15.6569 30.5062 15.5817 30.5212C15.7321 30.4912 15.9427 30.4611 16.1081 30.5212C16.5292 30.6566 16.8149 31.0777 17.0706 31.4086C17.4466 31.9048 18.0481 31.8447 18.4241 31.5439C18.5143 31.5289 18.6196 31.5138 18.7249 31.4537C21.7929 29.9949 24.5149 27.9045 27.6731 26.6412C29.1319 26.0546 30.7261 25.6636 32.3052 25.9043C33.9895 26.1599 35.4634 27.2728 36.3356 28.7015C37.268 30.2205 37.3432 32.1755 37.3733 33.905C37.3884 34.7322 37.3733 35.5744 37.3583 36.4015C37.3583 37.6347 37.6139 38.898 37.7643 40.1162C38.3509 44.8234 39.0727 49.5457 39.1479 54.298C39.163 55.0349 39.163 55.7568 39.163 56.4937C38.1553 56.4636 37.1477 56.5087 36.1552 56.4937ZM67.6319 24.0695C67.3762 23.107 65.9626 23.0017 65.1805 22.7761C63.7368 22.3701 62.0524 22.4453 60.5335 22.4603C60.2628 22.1595 59.8266 22.0091 59.3905 22.3099C57.1497 23.874 56.1421 26.5058 54.578 28.6564C53.6606 29.9347 52.4876 31.0777 51.495 32.341C51.495 31.9349 51.4799 31.5138 51.4799 31.1078C51.4799 29.0625 51.3296 26.972 51.5251 24.9267C51.6755 23.3777 51.9762 21.8287 52.1567 20.2796C52.3071 18.881 52.4424 17.3621 51.9612 16.0236C51.5251 14.8205 50.3971 14.2039 49.2391 13.8881C47.6901 13.467 45.9757 13.5572 44.3966 13.7226C43.4341 13.8279 42.4415 13.9783 41.494 14.2189C40.727 13.7226 40.0653 14.0986 39.8548 14.8205C39.6743 14.9558 39.569 15.1363 39.5239 15.3318C39.163 15.4521 38.8772 15.7529 38.8772 16.2191C38.8772 17.0613 38.8321 17.8734 38.5915 18.6855C38.411 19.2871 39.0126 19.7533 39.554 19.7533H42.8776C43.5995 25.9795 42.7874 32.2507 42.4716 38.4769C42.1407 44.9888 42.1708 51.5158 42.1708 58.0277C42.1708 58.524 42.5016 58.7947 42.8927 58.8247C43.6296 60.6144 47.4495 59.7722 48.8632 59.7572C49.2842 59.7572 49.57 59.3962 49.6753 59.0353C50.352 56.7193 50.3821 54.313 50.3069 51.9218C50.2618 50.463 50.2167 49.0042 50.2618 47.5455C50.8784 49.0794 51.6604 50.5984 52.1266 52.1925C52.262 52.6587 52.4876 53.1099 52.6079 53.5912C52.7733 54.1777 52.8936 54.7943 53.0591 55.3808C53.42 56.5839 54.1268 57.6216 55.2848 58.1781C56.3225 58.6593 57.676 58.554 58.7889 58.5089C60.0823 58.4488 61.3756 58.2833 62.684 58.2683C63.1954 58.2683 63.5112 57.757 63.5112 57.3058C63.5112 57.005 63.5112 56.7343 63.3909 56.4486C63.3157 56.2681 63.2104 56.1328 63.06 55.9974C63.06 55.9974 62.9547 55.9372 62.8645 55.8921C62.8645 55.6665 62.7893 55.441 62.6239 55.2605C62.6389 55.2605 62.6239 55.2154 62.5487 55.0951C62.5337 55.0499 62.4434 54.8695 62.3532 54.689C62.0975 54.1175 61.8719 53.531 61.6463 52.9445C61.1801 51.7564 60.744 50.5533 60.353 49.3351C59.9169 48.0117 59.3604 46.7935 58.7137 45.5603C57.9467 44.0564 57.0294 42.4623 56.8339 40.7628C56.6383 39.0634 58.052 37.5746 59.1198 36.4166C59.7214 35.7699 60.353 35.1533 60.9546 34.5066C61.5411 33.875 62.0374 33.1531 62.5938 32.4914C63.7969 31.0025 65.0452 29.5587 66.0979 27.9646C66.534 27.2879 66.8348 26.566 67.1958 25.8441C67.4815 25.2726 67.8124 24.6861 67.6319 24.0695ZM50.1114 22.0693C49.8858 23.6033 49.6903 25.1072 49.6903 26.6712V33.8148C49.6903 34.4164 49.6903 35.0179 49.6602 35.6044C49.6301 35.7097 49.6301 35.815 49.6452 35.9052C49.585 37.5445 49.4647 39.1687 49.194 40.823C48.8331 43.0488 48.5774 45.2294 48.4421 47.4853C48.2466 50.9894 48.8632 54.5386 48.0661 57.9826C47.4645 58.0126 46.878 58.0728 46.2764 58.1029C45.8253 58.1179 45.3741 58.1329 44.9229 58.0728C44.8177 58.0578 44.6071 58.0277 44.5469 58.0126C44.5319 58.0126 44.5319 58.0126 44.5169 57.9976C44.4266 57.6968 44.2161 57.5013 43.9454 57.4261C43.9454 51.0646 43.9454 44.688 44.2462 38.3416C44.5469 31.8296 45.4493 25.2877 44.5469 18.7908C44.4718 18.2795 44.0958 17.9636 43.5844 17.9636H40.5466C40.6067 17.4523 40.6368 16.941 40.6368 16.4297C41.0729 16.3695 41.479 16.2041 41.9151 16.1589C42.1858 16.1289 42.3964 16.0086 42.5317 15.8431C43.1333 15.7228 43.7348 15.6326 44.3364 15.5574C45.7952 15.3769 47.2991 15.3168 48.7278 15.6326C49.8106 15.8732 50.3219 16.4146 50.4423 17.5125C50.6227 19.0164 50.3219 20.5804 50.1114 22.0693ZM65.5866 25.0019C65.1956 25.7839 64.8647 26.5509 64.3684 27.2879C63.3006 28.867 62.0223 30.2806 60.8342 31.7544C59.7214 33.138 58.4881 34.3712 57.3001 35.7097C56.127 37.0181 55.0893 38.5371 55.0141 40.3417C54.9389 42.0111 55.7962 43.7105 56.518 45.1542C57.2098 46.5529 58.0671 47.9214 58.5032 49.4253C58.819 50.5533 59.2401 51.6511 59.6462 52.7339C59.962 53.5761 60.2928 54.4183 60.6538 55.2454C60.7891 55.5613 60.9245 55.9072 61.135 56.1929C61.0899 56.2982 61.0749 56.4035 61.0749 56.5087C59.5258 56.6441 57.9467 56.8697 56.4128 56.599C54.5479 56.2831 54.5329 53.5009 54.0366 52.1023C53.5854 50.839 53.044 49.5908 52.5327 48.3425C52.2319 47.6207 51.9311 46.8837 51.6454 46.1468C51.5401 45.8761 51.4499 45.6054 51.3596 45.3197C51.495 44.9287 51.4198 44.4474 50.9686 44.1767C50.8182 44.0865 50.6678 44.0414 50.5174 44.0414C50.7882 42.0562 51.1942 40.1011 51.3747 38.116C51.4499 37.3189 51.4799 36.5068 51.495 35.7097C51.871 34.6419 52.6831 33.7246 53.3899 32.8673C54.2321 31.8447 55.1344 30.8822 55.9315 29.8144C57.285 28.0097 58.1573 25.6636 59.9018 24.1597C60.0071 24.2048 60.1274 24.2199 60.2628 24.2199C62.1126 24.2199 63.9022 24.28 65.6919 24.7463C65.6618 24.8666 65.6167 24.9568 65.5866 25.0019Z" fill="black"/>
</svg>
