<svg viewBox="0 0 77 78" fill="none" xmlns="http://www.w3.org/2000/svg">
<path d="M6.80078 21.3724H22.6341V67.9189C22.6341 69.3483 20.9289 70.0637 19.9314 69.0531L7.55761 54.3541C7.06995 53.775 6.80078 53.0371 6.80078 52.2735V21.3724Z" fill="#00838F"/>
<path d="M54.3008 21.3724H70.1341V52.2735C70.1341 53.0371 69.865 53.775 69.3773 54.3557L57.0035 69.0547C56.006 70.0637 54.3008 69.3482 54.3008 67.9189V21.3724Z" fill="#EF5350"/>
<path d="M20.5853 8.96579L38.4674 26.1849V50.2474L6.80078 21.3724L18.3955 9.01392C18.9956 8.40754 19.9599 8.38669 20.5853 8.96579Z" fill="#A5D6A7"/>
<path d="M57.8617 8.94815L38.4675 26.1849V50.2474L70.1341 21.3724L60.0768 9.11659C59.5068 8.45728 58.522 8.38188 57.8617 8.94815Z" fill="#FFECB3"/>
</svg>
