<svg viewBox="0 0 77 78" fill="none" xmlns="http://www.w3.org/2000/svg">
<path d="M60.46 51.7233L60.27 51.8035C59.8583 51.9799 59.4308 52.1404 58.9875 52.3008C57.23 58.3806 52.9233 63.3535 47.3183 65.9362C44.6266 67.1874 41.6183 67.8933 38.4675 67.8933C35.3325 67.8933 32.3558 67.2035 29.6641 65.9522C24.0433 63.3856 19.705 58.3966 17.9475 52.3008C17.5041 52.1404 17.0766 51.9799 16.665 51.8035L16.475 51.7233C15.8416 51.4506 15.1133 51.1458 14.3533 50.7768C16.4433 62.3268 26.4658 71.1016 38.4675 71.1016C50.4691 71.1016 60.4916 62.3268 62.5816 50.7768C61.8216 51.1458 61.0933 51.4506 60.46 51.7233ZM38.4675 24.5808C42.1883 24.5808 45.6875 25.5593 48.7433 27.2597L50.865 24.7893C47.2233 22.6237 42.9958 21.3724 38.4675 21.3724C33.9391 21.3724 29.7116 22.6237 26.07 24.7893L28.1916 27.2597C31.2475 25.5593 34.7466 24.5808 38.4675 24.5808Z" fill="#EF6C00"/>
<path d="M73.3008 19.7684C68.9039 24.2231 66.8218 21.1768 68.1676 18.7369C71.4768 14.4714 73.3008 9.19208 73.3008 3.72668L40.8266 41.2802L40.2265 35.81H41.6341L40.0508 34.2059L37.812 31.9376C36.5754 30.6847 34.5709 30.6847 33.3343 31.9376L36.7543 35.4026L36.1083 41.2802L3.63412 3.72668C3.63412 9.19208 5.45812 14.4714 8.76729 18.7369C10.1131 21.1768 8.03104 24.2231 3.63412 19.7684C4.67121 22.9189 6.51737 25.7342 8.98579 27.9207L13.4571 31.8846C11.6838 31.2943 9.74262 30.9975 8.38412 30.9975C5.21746 30.9975 3.63412 27.7892 3.63412 27.7892C3.63412 35.81 11.5508 37.4142 11.5508 37.4142C16.3008 39.0183 8.38412 39.0183 8.38412 39.0183C8.38412 40.6225 13.1341 42.2267 16.3008 43.8308C14.7175 45.435 11.5508 43.8308 11.5508 43.8308C11.5508 46.2371 15.5091 47.8413 17.8841 48.8439C20.2211 49.8304 22.7545 50.2475 25.2878 50.2475H30.5508C27.3841 50.2475 25.8008 53.4558 25.8008 53.4558C29.368 53.4558 31.6417 52.8046 33.0715 52.0875C34.4901 55.8573 32.1341 58.2683 32.1341 58.2683L30.5508 55.06L28.9675 59.8725C28.9675 59.8725 30.5508 64.685 35.524 64.685H35.5478C35.3895 63.9599 35.3008 63.1081 35.3008 62.1184C35.3008 58.132 38.4675 53.4558 38.4675 53.4558C38.4675 53.4558 41.6341 58.132 41.6341 62.1184C41.6341 63.1081 41.5455 63.9599 41.3887 64.685H41.4125C46.3841 64.685 47.9675 59.8725 47.9675 59.8725L46.3841 55.06L44.8008 58.2683C44.8008 58.2683 42.4448 55.8573 43.8635 52.0875C45.2932 52.8046 47.5669 53.4558 51.1341 53.4558C51.1341 53.4558 49.5508 50.2475 46.3841 50.2475H51.6471C54.1789 50.2475 56.7122 49.8304 59.0508 48.8439C61.4258 47.8413 65.3841 46.2371 65.3841 43.8308C65.3841 43.8308 62.2175 45.435 60.6341 43.8308C63.8008 42.2267 68.5508 40.6225 68.5508 39.0183C68.5508 39.0183 60.6341 39.0183 65.3841 37.4142C65.3841 37.4142 73.3008 35.81 73.3008 27.7892C73.3008 27.7892 71.7175 30.9975 68.5508 30.9975C67.1923 30.9975 65.2511 31.2943 63.4778 31.8862L67.9491 27.9223C70.4175 25.7342 72.2637 22.9189 73.3008 19.7684Z" fill="#EF6C00"/>
</svg>
