<svg viewBox="0 0 76 78" fill="none" xmlns="http://www.w3.org/2000/svg">
<path d="M66.0925 59.8725C66.0925 64.3032 62.5956 67.8933 58.28 67.8933H17.655C13.3409 67.8933 9.84247 64.3032 9.84247 59.8725V18.1641C9.84247 13.7334 13.3409 10.1433 17.655 10.1433H58.28C62.5956 10.1433 66.0925 13.7334 66.0925 18.1641V59.8725Z" fill="#006064"/>
<path d="M26.4784 48.6433H20.169C19.7893 48.6433 19.5049 48.4668 19.3471 48.2053C19.1799 47.9278 19.1706 47.5685 19.3471 47.2188L26.0518 35.149C26.0581 35.133 26.0581 35.1282 26.0518 35.1121L21.7862 27.579C21.6065 27.2228 21.5815 26.8699 21.7487 26.5924C21.9065 26.3245 22.2268 26.1849 22.6065 26.1849H28.9174C29.8846 26.1849 30.3596 26.8234 30.6721 27.3961C30.6721 27.3961 34.9862 35.0688 35.0112 35.1121C34.7565 35.5725 28.2003 47.3984 28.2003 47.3984C27.8784 47.9936 27.4221 48.6433 26.4784 48.6433Z" fill="#F7F7F7"/>
<path d="M56.5831 19.5775L42.6143 44.9361C42.6065 44.9538 42.6065 44.9666 42.6143 44.9778L51.5081 61.6676C51.6831 62.0269 51.6909 62.3895 51.5222 62.667C51.3596 62.9333 51.0675 63.0808 50.6847 63.0808H44.3831C43.419 63.0808 42.9331 62.4231 42.6222 61.844C42.6222 61.844 33.6784 45.0035 33.655 44.9602C34.1018 44.1485 47.6925 19.3994 47.6925 19.3994C48.03 18.777 48.4425 18.1642 49.3815 18.1642H55.7597C56.1378 18.1642 56.4378 18.3102 56.5971 18.5797C56.7628 18.8556 56.7565 19.2165 56.5831 19.5775Z" fill="#CDDC39"/>
</svg>
