<svg width="70" height="70" viewBox="0 0 70 70" fill="none" xmlns="http://www.w3.org/2000/svg">
<path d="M30.6492 0.253693C30.2315 0.482765 0.546268 30.1814 0.317195 30.5857C0.0746467 31.0573 0.034222 38.0777 0.290245 38.5493C0.613642 39.1692 0.627117 39.1692 5.4646 39.1827C7.99788 39.1827 10.3829 39.25 10.7737 39.3174C12.9027 39.7217 14.4928 41.2578 14.9375 43.3329C15.0183 43.7237 15.0857 44.3974 15.0857 44.8152V45.5832L7.79576 52.8597C3.79372 56.8617 0.424994 60.2978 0.317195 60.4999C0.168971 60.7964 0.128546 61.6049 0.128546 64.5828V68.3154L0.519318 68.7062L0.91009 69.0969H19.6267C34.0449 69.0834 38.3972 69.0565 38.6128 68.9218C38.7611 68.8274 43.8815 63.5183 49.9856 57.1043C56.0763 50.6902 62.8811 43.6294 65.091 41.406L69.12 37.3501V33.5367C69.12 31.0708 69.0661 29.6424 68.9718 29.4538C68.6484 28.8474 68.2307 28.7935 62.8811 28.807C57.4777 28.8205 57.3834 28.8205 56.1167 28.0659C54.9848 27.4191 53.9068 25.856 53.7182 24.6163L53.6508 24.1312L61.1968 16.5987C65.3335 12.4619 68.8235 8.90457 68.9314 8.70245C69.0796 8.406 69.12 7.59751 69.12 4.61956V0.887009L68.7292 0.496239L68.3385 0.105469H49.6218C36.4434 0.118942 30.8378 0.15937 30.6492 0.253693ZM51.3331 16.208L37.5214 30.0197H20.8125H4.10364L17.9154 16.208L31.7272 2.3962H48.436H65.1449L51.3331 16.208ZM53.1253 21.4227C45.5794 28.9687 39.3674 35.1402 39.3135 35.1402C39.2462 35.1402 39.2057 34.3721 39.2057 33.4289V31.7041L52.9906 17.9193L66.7619 4.14793L66.8023 5.92662L66.8427 7.70531L53.1253 21.4227ZM53.4217 28.8205C54.2572 29.6963 55.2139 30.3162 56.3323 30.7204C57.1408 31.0169 57.4238 31.0303 61.1429 31.0708C63.2988 31.0977 65.0775 31.1516 65.0775 31.192C65.0775 31.2459 63.4605 32.9168 61.4663 34.9246C59.4854 36.9324 53.287 43.3868 47.7084 49.2484L37.5483 59.934H33.4924C31.2555 59.934 29.0726 59.8801 28.6414 59.7992C27.0514 59.5432 25.5018 58.3844 24.8011 56.9426C24.289 55.8781 24.2217 54.8809 24.2756 48.925C24.316 43.5216 24.3295 43.2656 24.6124 42.5783C25.1649 41.2039 26.2698 40.1124 27.6443 39.5465C28.3315 39.2635 28.601 39.25 33.4789 39.2096L38.5994 39.1692L45.1347 32.6473L51.6565 26.1255L52.209 27.1361C52.5055 27.6751 53.0579 28.4432 53.4217 28.8205ZM36.915 34.6012V36.8919H32.8995C30.6357 36.8919 28.5336 36.9593 28.0755 37.0401C27.6443 37.121 26.7819 37.4174 26.1755 37.7139C24.1812 38.6706 22.7933 40.3954 22.2274 42.6322C21.9848 43.5889 21.9579 44.1279 21.9579 49.4775C21.9579 55.9859 22.0118 56.4979 22.8337 58.1284C23.6827 59.8127 25.3535 61.2411 27.1996 61.8474C28.0216 62.1169 28.3989 62.1439 32.5087 62.1978L36.915 62.2382V64.5289V66.8062H19.6671H2.41928V64.5155V62.2247H6.4348C10.9624 62.2247 11.717 62.1304 13.2935 61.3489C15.1665 60.4191 16.7431 58.3979 17.1743 56.3362C17.4707 54.9752 17.4573 43.9258 17.1743 42.6996C16.6892 40.6649 15.207 38.7649 13.3744 37.7947C11.8248 36.9863 11.1375 36.8919 6.50217 36.8919H2.41928V34.6012V32.3105H19.6671H36.915V34.6012ZM62.8137 40.4628C59.7415 43.5485 48.8807 54.8809 39.4483 64.8523C39.2057 65.1218 39.1923 65.0949 39.2327 63.2892L39.2731 61.4567L49.5814 50.6228C55.2409 44.6669 61.4258 38.2259 63.3258 36.3125L66.7619 32.836L66.8023 34.6281L66.8427 36.4068L62.8137 40.4628ZM14.9509 55.6894C14.5063 57.8454 12.8354 59.4489 10.6929 59.7992C9.76309 59.9475 4.17101 59.9879 4.17101 59.8397C4.17101 59.7723 6.60997 57.2929 9.6014 54.3015L15.0183 48.8846L15.0587 51.9434C15.0722 53.7086 15.0318 55.2986 14.9509 55.6894Z" fill="white" fillOpacity="0.81"/>
<path d="M49.9182 31.5695C49.487 31.9872 49.487 32.5801 49.9048 33.0652C50.7402 34.0489 52.3168 32.9978 51.7104 31.8659C51.3331 31.1518 50.4707 31.0035 49.9182 31.5695Z" fill="white"/>
<path d="M46.6169 35.0458C46.5091 35.1401 46.0914 35.5579 45.7141 35.9756C44.946 36.811 44.8248 37.2557 45.2155 37.8082C45.7815 38.6166 46.5765 38.428 47.668 37.2422C48.2474 36.5954 48.3687 36.3798 48.3687 35.9621C48.3687 35.3018 47.924 34.8706 47.2772 34.8706C47.0212 34.8706 46.7247 34.9515 46.6169 35.0458Z" fill="white"/>
<path d="M42.2106 39.789C42.0085 39.8833 41.5099 40.301 41.1192 40.7187C40.5532 41.3386 40.4185 41.5811 40.4185 41.9584C40.4185 42.5783 40.917 43.0903 41.5234 43.0903C42.0354 43.0903 42.3049 42.8882 43.1673 41.9045C43.868 41.1095 43.9489 40.6379 43.5177 40.0989C43.1943 39.6812 42.7227 39.5734 42.2106 39.789Z" fill="white"/>
<path d="M37.6561 44.5592C37.5079 44.6266 37.0363 45.0443 36.6186 45.489C35.9583 46.1762 35.837 46.3783 35.837 46.796C35.837 47.4294 36.3221 47.9414 36.942 47.9414C37.3058 47.9414 37.5349 47.7797 38.2895 47.0116C39.0171 46.2705 39.2058 45.9875 39.2058 45.6642C39.2058 44.9096 38.3164 44.2762 37.6561 44.5592Z" fill="white"/>
<path d="M32.1314 50.1781C31.6597 50.6767 31.2555 51.2157 31.2151 51.3774C31.0534 52.2398 31.9427 52.9809 32.7377 52.6575C33.2363 52.4554 34.4625 51.1348 34.5703 50.6901C34.6916 50.2455 34.4086 49.6256 34.0044 49.437C33.3172 49.127 33.0207 49.2483 32.1314 50.1781Z" fill="white"/>
<path d="M28.0889 54.4767C27.5095 55.0426 27.7386 56.0128 28.5066 56.3092C28.9782 56.4844 29.7328 56.1475 29.9215 55.6625C30.3527 54.5171 28.9513 53.6008 28.0889 54.4767Z" fill="white"/>
</svg>
