<svg width="32" height="33" viewBox="0 0 32 33" fill="none" xmlns="http://www.w3.org/2000/svg">
<path d="M2.33333 4.12058C2.20082 4.11871 2.06926 4.14319 1.94629 4.1926C1.82332 4.24202 1.7114 4.31538 1.61703 4.40842C1.52266 4.50147 1.44773 4.61234 1.39658 4.7346C1.34543 4.85685 1.31909 4.98806 1.31909 5.12058C1.31909 5.25311 1.34543 5.38431 1.39658 5.50657C1.44773 5.62883 1.52266 5.7397 1.61703 5.83274C1.7114 5.92579 1.82332 5.99915 1.94629 6.04856C2.06926 6.09798 2.20082 6.12246 2.33333 6.12058H4.17057C4.65586 6.12058 5.06039 6.45587 5.15234 6.93308L5.34896 7.96433C5.34951 7.96738 5.34968 7.9704 5.35026 7.97345L7.5013 19.2651C7.88997 21.3065 9.68111 22.7873 11.7591 22.7873H24.2422C26.3202 22.7873 28.1094 21.3065 28.4987 19.2651L30.6497 7.97345C30.7044 7.68145 30.6268 7.37923 30.4375 7.14923C30.2475 6.9199 29.9647 6.78725 29.6667 6.78725H7.16016L7.11719 6.55939C6.84844 5.15094 5.60465 4.12058 4.17057 4.12058H2.33333ZM17.6667 10.7873C18.2193 10.7873 18.6667 11.2346 18.6667 11.7873V13.4539H20.3333C20.886 13.4539 21.3333 13.9013 21.3333 14.4539C21.3333 15.0066 20.886 15.4539 20.3333 15.4539H18.6667V17.1206C18.6667 17.6733 18.2193 18.1206 17.6667 18.1206C17.114 18.1206 16.6667 17.6733 16.6667 17.1206V15.4539H15C14.4473 15.4539 14 15.0066 14 14.4539C14 13.9013 14.4473 13.4539 15 13.4539H16.6667V11.7873C16.6667 11.2346 17.114 10.7873 17.6667 10.7873ZM13.3333 24.1206C12.8029 24.1206 12.2942 24.3313 11.9191 24.7064C11.544 25.0814 11.3333 25.5902 11.3333 26.1206C11.3333 26.651 11.544 27.1597 11.9191 27.5348C12.2942 27.9099 12.8029 28.1206 13.3333 28.1206C13.8638 28.1206 14.3725 27.9099 14.7475 27.5348C15.1226 27.1597 15.3333 26.651 15.3333 26.1206C15.3333 25.5902 15.1226 25.0814 14.7475 24.7064C14.3725 24.3313 13.8638 24.1206 13.3333 24.1206ZM22.6667 24.1206C22.1362 24.1206 21.6275 24.3313 21.2525 24.7064C20.8774 25.0814 20.6667 25.5902 20.6667 26.1206C20.6667 26.651 20.8774 27.1597 21.2525 27.5348C21.6275 27.9099 22.1362 28.1206 22.6667 28.1206C23.1971 28.1206 23.7058 27.9099 24.0809 27.5348C24.4559 27.1597 24.6667 26.651 24.6667 26.1206C24.6667 25.5902 24.4559 25.0814 24.0809 24.7064C23.7058 24.3313 23.1971 24.1206 22.6667 24.1206Z" fill="#EFEFED"/>
</svg>
