<svg width="100%" height="100%" viewBox="0 0 266 246" fill="none" xmlns="http://www.w3.org/2000/svg">
<path d="M166.701 1.50003C119.158 10.8012 126.236 62.219 44.389 91.0747C-43.3395 121.997 9.79481 238.671 109.608 245.315C208.954 251.924 254.768 210.448 264.968 131.626C272.637 72.3555 237.351 -12.319 166.701 1.50003Z" fill="#374162" fillOpacity="0.25"/>
<path d="M44.5552 91.5463L44.389 91.0747L44.5552 91.5462C85.5947 77.0776 104.357 56.9371 118.796 39.2708C120.164 37.5977 121.491 35.9485 122.794 34.3297C135.252 18.8544 145.468 6.16333 166.797 1.99073C201.862 -4.86796 228.161 12.6907 244.779 39.4184C261.409 66.1652 268.292 102.034 264.472 131.562C259.383 170.892 245.42 200.823 220.413 220.111C195.399 239.404 159.248 248.116 109.642 244.816C59.9197 241.507 21.8475 210.791 7.12862 177.099C-0.229391 160.257 -1.73892 142.703 4.00071 127.462C9.73591 112.233 22.7374 99.2367 44.5552 91.5463Z" stroke="#374162" strokeOpacity="0.25"/>
</svg>
