<svg width="230" height="221" viewBox="0 0 230 221" fill="none" xmlns="http://www.w3.org/2000/svg">
<path d="M48.1354 41.4375C31.6896 41.4375 18.2083 54.9188 18.2083 71.3646V149.635C18.2083 166.081 31.6896 179.562 48.1354 179.562H190.865C207.31 179.562 220.792 166.081 220.792 149.635V71.3646C220.792 54.9188 207.31 41.4375 190.865 41.4375H48.1354ZM48.1354 55.25H190.865C199.843 55.25 206.979 62.3862 206.979 71.3646V78.2708H32.0208V71.3646C32.0208 62.3862 39.157 55.25 48.1354 55.25ZM32.0208 96.6875H206.979V149.635C206.979 158.614 199.843 165.75 190.865 165.75H48.1354C39.157 165.75 32.0208 158.614 32.0208 149.635V96.6875Z" fill="url(#paint0_linear_4851_1554)" fillOpacity="0.8"/>
<path d="M151.358 134.018C152.208 133.677 153.116 133.508 154.031 133.521H181.656C182.571 133.508 183.48 133.677 184.329 134.018C185.179 134.36 185.951 134.866 186.603 135.509C187.255 136.151 187.772 136.917 188.126 137.761C188.479 138.606 188.661 139.512 188.661 140.427C188.661 141.342 188.479 142.249 188.126 143.093C187.772 143.937 187.255 144.703 186.603 145.346C185.951 145.988 185.179 146.495 184.329 146.836C183.48 147.177 182.571 147.346 181.656 147.333H154.031C153.116 147.346 152.208 147.177 151.358 146.836C150.509 146.495 149.736 145.988 149.084 145.346C148.433 144.703 147.915 143.937 147.562 143.093C147.209 142.249 147.027 141.342 147.027 140.427C147.027 139.512 147.209 138.606 147.562 137.761C147.915 136.917 148.433 136.151 149.084 135.509C149.736 134.866 150.509 134.36 151.358 134.018Z" fill="#D16035"/>
<g clip-path="url(#clip0_4851_1554)">
<ellipse cx="38.1832" cy="161" rx="31.2977" ry="31.5385" fill="#495169"/>
<g filter="url(#filter0_bd_4851_1554)">
<path d="M41 126.833C22.1298 126.833 6.83334 142.13 6.83334 161C6.83334 179.87 22.1298 195.167 41 195.167C59.8703 195.167 75.1667 179.87 75.1667 161C75.1667 142.13 59.8703 126.833 41 126.833ZM53.9167 170.292C54.9178 171.293 54.9178 172.914 53.9167 173.915C53.4162 174.417 52.7602 174.667 52.1042 174.667C51.4482 174.667 50.7922 174.417 50.2916 173.917L41 164.623L31.7084 173.915C31.2078 174.417 30.5518 174.667 29.8958 174.667C29.2398 174.667 28.5838 174.417 28.0833 173.917C27.0822 172.916 27.0822 171.294 28.0833 170.293L37.3766 161L28.085 151.708C27.0839 150.707 27.0839 149.086 28.085 148.085C29.0861 147.084 30.7073 147.084 31.7084 148.085L41 157.377L50.2916 148.085C51.2927 147.084 52.9139 147.084 53.915 148.085C54.9161 149.086 54.9161 150.707 53.915 151.708L44.6234 161L53.9167 170.292Z" fill="#FC5E5E"/>
</g>
</g>
<defs>
<filter id="filter0_bd_4851_1554" x="-33.1667" y="86.8333" width="148.333" height="168.333" filterUnits="userSpaceOnUse" color-interpolation-filters="sRGB">
<feFlood flood-opacity="0" result="BackgroundImageFix"/>
<feGaussianBlur in="BackgroundImage" stdDeviation="20"/>
<feComposite in2="SourceAlpha" operator="in" result="effect1_backgroundBlur_4851_1554"/>
<feColorMatrix in="SourceAlpha" type="matrix" values="0 0 0 0 0 0 0 0 0 0 0 0 0 0 0 0 0 0 127 0" result="hardAlpha"/>
<feOffset dy="20"/>
<feGaussianBlur stdDeviation="20"/>
<feColorMatrix type="matrix" values="0 0 0 0 0.137302 0 0 0 0 0.129776 0 0 0 0 0.129776 0 0 0 0.15 0"/>
<feBlend mode="normal" in2="effect1_backgroundBlur_4851_1554" result="effect2_dropShadow_4851_1554"/>
<feBlend mode="normal" in="SourceGraphic" in2="effect2_dropShadow_4851_1554" result="shape"/>
</filter>
<linearGradient id="paint0_linear_4851_1554" x1="87.1685" y1="44.3385" x2="87.1685" y2="177.166" gradientUnits="userSpaceOnUse">
<stop stopColor="#9FAFEF" stopOpacity="0.64"/>
<stop offset="0.963542" stopColor="#8C98BE" stopOpacity="0.63"/>
</linearGradient>
<clipPath id="clip0_4851_1554">
<rect width="82" height="82" fill="white" transform="translate(0 120)"/>
</clipPath>
</defs>
</svg>
