<svg width="100%" height="100%" viewBox="0 0 231 221" fill="none" xmlns="http://www.w3.org/2000/svg">
<path d="M49.1355 41.4375C32.6897 41.4375 19.2084 54.9188 19.2084 71.3646V149.635C19.2084 166.081 32.6897 179.562 49.1355 179.562H191.865C208.31 179.562 221.792 166.081 221.792 149.635V71.3646C221.792 54.9188 208.31 41.4375 191.865 41.4375H49.1355ZM49.1355 55.25H191.865C200.843 55.25 207.979 62.3862 207.979 71.3646V78.2708H33.0209V71.3646C33.0209 62.3862 40.157 55.25 49.1355 55.25ZM33.0209 96.6875H207.979V149.635C207.979 158.614 200.843 165.75 191.865 165.75H49.1355C40.157 165.75 33.0209 158.614 33.0209 149.635V96.6875Z" fill="url(#paint0_linear_4850_1553)" fillOpacity="0.8"/>
<path d="M152.358 134.018C153.207 133.677 154.116 133.508 155.031 133.521H182.656C183.571 133.508 184.48 133.677 185.329 134.018C186.178 134.36 186.951 134.866 187.603 135.509C188.255 136.151 188.772 136.917 189.126 137.761C189.479 138.606 189.661 139.512 189.661 140.427C189.661 141.342 189.479 142.249 189.126 143.093C188.772 143.937 188.255 144.703 187.603 145.346C186.951 145.988 186.178 146.495 185.329 146.836C184.48 147.177 183.571 147.346 182.656 147.333H155.031C154.116 147.346 153.207 147.177 152.358 146.836C151.509 146.495 150.736 145.988 150.084 145.346C149.433 144.703 148.915 143.937 148.562 143.093C148.209 142.249 148.027 141.342 148.027 140.427C148.027 139.512 148.209 138.606 148.562 137.761C148.915 136.917 149.433 136.151 150.084 135.509C150.736 134.866 151.509 134.36 152.358 134.018Z" fill="#D16035"/>
<g clip-path="url(#clip0_4850_1553)">
<ellipse cx="48.8702" cy="148.5" rx="37.0229" ry="37.3077" fill="#495169"/>
<g filter="url(#filter0_bd_4850_1553)">
<path d="M48.5 108.083C26.2143 108.083 8.08337 126.214 8.08337 148.5C8.08337 170.786 26.2143 188.917 48.5 188.917C70.7858 188.917 88.9167 170.786 88.9167 148.5C88.9167 126.214 70.7858 108.083 48.5 108.083ZM65.8004 141.55L45.5921 161.759C45 162.351 44.224 162.646 43.448 162.646C42.672 162.646 41.896 162.351 41.3039 161.759L31.1997 151.654C30.0155 150.47 30.0155 148.552 31.1997 147.368C32.3839 146.184 34.3017 146.184 35.4859 147.368L43.4459 155.328L61.5102 137.264C62.6944 136.08 64.6121 136.08 65.7964 137.264C66.9806 138.448 66.9826 140.366 65.8004 141.55Z" fill="#4DD0B3"/>
</g>
</g>
<defs>
<filter id="filter0_bd_4850_1553" x="-31.9166" y="68.0833" width="160.833" height="180.833" filterUnits="userSpaceOnUse" color-interpolation-filters="sRGB">
<feFlood flood-opacity="0" result="BackgroundImageFix"/>
<feGaussianBlur in="BackgroundImage" stdDeviation="20"/>
<feComposite in2="SourceAlpha" operator="in" result="effect1_backgroundBlur_4850_1553"/>
<feColorMatrix in="SourceAlpha" type="matrix" values="0 0 0 0 0 0 0 0 0 0 0 0 0 0 0 0 0 0 127 0" result="hardAlpha"/>
<feOffset dy="20"/>
<feGaussianBlur stdDeviation="20"/>
<feColorMatrix type="matrix" values="0 0 0 0 0.137302 0 0 0 0 0.129776 0 0 0 0 0.129776 0 0 0 0.15 0"/>
<feBlend mode="normal" in2="effect1_backgroundBlur_4850_1553" result="effect2_dropShadow_4850_1553"/>
<feBlend mode="normal" in="SourceGraphic" in2="effect2_dropShadow_4850_1553" result="shape"/>
</filter>
<linearGradient id="paint0_linear_4850_1553" x1="88.1686" y1="44.3385" x2="88.1686" y2="177.166" gradientUnits="userSpaceOnUse">
<stop stopColor="#9FAFEF" stopOpacity="0.64"/>
<stop offset="0.963542" stopColor="#8C98BE" stopOpacity="0.63"/>
</linearGradient>
<clipPath id="clip0_4850_1553">
<rect width="97" height="97" fill="white" transform="translate(0 100)"/>
</clipPath>
</defs>
</svg>
