<svg width="67" height="57" viewBox="0 0 67 57" fill="none" xmlns="http://www.w3.org/2000/svg">
<path d="M0.634735 0.275879H10.2324V4.70557H6.39059V8.90283H9.9863V13.1138H6.39059V17.981H10.6152V22.4106H0.634735V0.275879ZM17.6425 0.275879V5.25244C18.1165 4.81494 18.6269 4.48682 19.1738 4.26807C19.7298 4.04932 20.3222 3.93994 20.9511 3.93994C21.9173 3.93994 22.7376 4.18604 23.4121 4.67822C24.0957 5.17041 24.5104 5.74007 24.6562 6.38721C24.8112 7.02523 24.8886 8.19645 24.8886 9.90088V22.4106H19.3652V9.64111C19.3652 8.58382 19.3105 7.90479 19.2011 7.604C19.1009 7.30322 18.8685 7.15283 18.5039 7.15283C18.1666 7.15283 17.9388 7.30778 17.8203 7.61768C17.7018 7.92757 17.6425 8.54281 17.6425 9.46338V22.4106H12.1191V0.275879H17.6425ZM38.082 10.0649H33.1875V9.08057C33.1875 8.24202 33.1373 7.71338 33.0371 7.49463C32.9459 7.26676 32.709 7.15283 32.3261 7.15283C32.0162 7.15283 31.7838 7.25765 31.6289 7.46729C31.4739 7.66781 31.3965 7.97314 31.3965 8.3833C31.3965 8.93929 31.4329 9.34945 31.5058 9.61377C31.5879 9.86898 31.8203 10.1515 32.2031 10.4614C32.595 10.7713 33.3925 11.2225 34.5957 11.8149C36.1998 12.5988 37.2526 13.3371 37.7539 14.0298C38.2552 14.7225 38.5058 15.7297 38.5058 17.0513C38.5058 18.5278 38.3144 19.6444 37.9316 20.4009C37.5488 21.1483 36.9062 21.7271 36.0039 22.1372C35.1106 22.5382 34.0306 22.7388 32.7636 22.7388C31.36 22.7388 30.1569 22.52 29.1543 22.0825C28.1608 21.645 27.4772 21.0526 27.1035 20.3052C26.7298 19.5578 26.5429 18.4276 26.5429 16.9146V16.0396H31.4375V17.188C31.4375 18.1632 31.4967 18.7967 31.6152 19.0884C31.7428 19.38 31.9889 19.5259 32.3535 19.5259C32.7454 19.5259 33.0188 19.4302 33.1738 19.2388C33.3287 19.0382 33.4062 18.6235 33.4062 17.9946C33.4062 17.1287 33.306 16.5864 33.1054 16.3677C32.8958 16.1489 31.8248 15.5018 29.8925 14.4263C28.2702 13.5148 27.2812 12.6899 26.9258 11.9517C26.5703 11.2043 26.3925 10.3201 26.3925 9.29932C26.3925 7.8501 26.584 6.78369 26.9668 6.1001C27.3496 5.40739 27.9967 4.87419 28.9082 4.50049C29.8287 4.12679 30.8952 3.93994 32.1074 3.93994C33.3105 3.93994 34.3313 4.09489 35.1699 4.40479C36.0175 4.70557 36.6647 5.10661 37.1113 5.60791C37.567 6.10921 37.8405 6.57406 37.9316 7.00244C38.0319 7.43083 38.082 8.10075 38.082 9.01221V10.0649ZM44.9179 11.2954H39.7363V10.0786C39.7363 8.67497 39.8958 7.59489 40.2148 6.83838C40.5429 6.07275 41.1946 5.39827 42.1699 4.81494C43.1452 4.23161 44.4121 3.93994 45.9707 3.93994C47.8392 3.93994 49.2474 4.27262 50.1953 4.93799C51.1432 5.59424 51.7129 6.40544 51.9043 7.37158C52.0957 8.32861 52.1914 10.3065 52.1914 13.3052V22.4106H46.8183V20.7974C46.4811 21.4445 46.0436 21.9321 45.5058 22.2603C44.9772 22.5793 44.3437 22.7388 43.6054 22.7388C42.6393 22.7388 41.7506 22.4699 40.9394 21.9321C40.1373 21.3853 39.7363 20.1958 39.7363 18.3638V16.8735C39.7363 15.5155 39.9505 14.5903 40.3789 14.0981C40.8073 13.606 41.8691 13.0317 43.5644 12.3755C45.3782 11.6646 46.3489 11.186 46.4765 10.9399C46.6041 10.6938 46.6679 10.1925 46.6679 9.43604C46.6679 8.48812 46.595 7.87288 46.4492 7.59033C46.3125 7.29867 46.08 7.15283 45.7519 7.15283C45.3782 7.15283 45.1458 7.27588 45.0547 7.52197C44.9635 7.75895 44.9179 8.3833 44.9179 9.39502V11.2954ZM46.6679 13.7837C45.7838 14.4308 45.2688 14.9731 45.123 15.4106C44.9863 15.8481 44.9179 16.4771 44.9179 17.2974C44.9179 18.2362 44.9772 18.8423 45.0957 19.1157C45.2233 19.3892 45.4694 19.5259 45.834 19.5259C46.1803 19.5259 46.4036 19.4211 46.5039 19.2114C46.6133 18.9927 46.6679 18.4276 46.6679 17.5161V13.7837ZM59.7109 4.26807L59.6152 5.93604C60.0162 5.27067 60.5039 4.77393 61.0781 4.4458C61.6614 4.10856 62.3313 3.93994 63.0879 3.93994C64.0358 3.93994 64.8105 4.16325 65.4121 4.60986C66.0136 5.05648 66.401 5.62158 66.5742 6.30518C66.7474 6.97965 66.834 8.10986 66.834 9.6958V22.4106H61.3105V9.84619C61.3105 8.59749 61.2695 7.83643 61.1875 7.56299C61.1054 7.28955 60.8776 7.15283 60.5039 7.15283C60.1119 7.15283 59.8659 7.31234 59.7656 7.63135C59.6653 7.94124 59.6152 8.77979 59.6152 10.147V22.4106H54.0918V4.26807H59.7109ZM20.1718 34.2759V56.4106H15.1406V41.4673L13.1308 56.4106H9.56247L7.44333 41.8091V56.4106H2.41208V34.2759H9.86325C10.082 35.6066 10.3144 37.1743 10.5605 38.979L11.3535 44.6118L12.666 34.2759H20.1718ZM34.8281 47.6606H27.6777V51.5845C27.6777 52.4048 27.7369 52.9334 27.8554 53.1704C27.9739 53.4074 28.2018 53.5259 28.539 53.5259C28.9583 53.5259 29.2363 53.3709 29.373 53.061C29.5188 52.742 29.5918 52.1313 29.5918 51.229V48.8364H34.8281V50.1763C34.8281 51.2974 34.7552 52.1587 34.6093 52.7603C34.4726 53.3618 34.1445 54.0044 33.625 54.688C33.1054 55.3716 32.4446 55.8866 31.6425 56.2329C30.8496 56.5701 29.8515 56.7388 28.6484 56.7388C27.4817 56.7388 26.4518 56.5701 25.5586 56.2329C24.6653 55.8957 23.9681 55.4354 23.4668 54.8521C22.9746 54.2596 22.6328 53.6125 22.4414 52.9106C22.25 52.1997 22.1543 51.1698 22.1543 49.8208V44.5298C22.1543 42.9438 22.3685 41.6951 22.7968 40.7837C23.2252 39.8631 23.9271 39.1613 24.9023 38.6782C25.8776 38.186 26.9987 37.9399 28.2656 37.9399C29.8151 37.9399 31.0911 38.2362 32.0937 38.8286C33.1054 39.4119 33.8118 40.1912 34.2129 41.1665C34.623 42.1326 34.8281 43.4953 34.8281 45.2544V47.6606ZM29.291 44.7075V43.3813C29.291 42.4425 29.2409 41.8364 29.1406 41.563C29.0403 41.2896 28.8353 41.1528 28.5254 41.1528C28.1425 41.1528 27.9056 41.2713 27.8144 41.5083C27.7233 41.7362 27.6777 42.3605 27.6777 43.3813V44.7075H29.291ZM42.4707 35.8481V38.7056H43.9609V41.5767H42.4707V51.2837C42.4707 52.4777 42.5299 53.1431 42.6484 53.2798C42.776 53.4165 43.291 53.4849 44.1933 53.4849V56.4106H41.9648C40.707 56.4106 39.8092 56.3605 39.2715 56.2603C38.7337 56.1509 38.2597 55.9093 37.8496 55.5356C37.4394 55.1528 37.1842 54.7199 37.084 54.2368C36.9837 53.7446 36.9336 52.5962 36.9336 50.7915V41.5767H35.7441V38.7056H36.9336V35.8481H42.4707ZM50.1133 45.2954H44.9316V44.0786C44.9316 42.675 45.0911 41.5949 45.4101 40.8384C45.7383 40.0728 46.3899 39.3983 47.3652 38.8149C48.3405 38.2316 49.6074 37.9399 51.166 37.9399C53.0345 37.9399 54.4427 38.2726 55.3906 38.938C56.3385 39.5942 56.9082 40.4054 57.0996 41.3716C57.291 42.3286 57.3867 44.3065 57.3867 47.3052V56.4106H52.0136V54.7974C51.6764 55.4445 51.2389 55.9321 50.7011 56.2603C50.1725 56.5793 49.539 56.7388 48.8008 56.7388C47.8346 56.7388 46.9459 56.4699 46.1347 55.9321C45.3327 55.3853 44.9316 54.1958 44.9316 52.3638V50.8735C44.9316 49.5155 45.1458 48.5903 45.5742 48.0981C46.0026 47.606 47.0644 47.0317 48.7597 46.3755C50.5735 45.6646 51.5442 45.186 51.6718 44.9399C51.7994 44.6938 51.8633 44.1925 51.8633 43.436C51.8633 42.4881 51.7903 41.8729 51.6445 41.5903C51.5078 41.2987 51.2754 41.1528 50.9472 41.1528C50.5735 41.1528 50.3411 41.2759 50.25 41.522C50.1588 41.759 50.1133 42.3833 50.1133 43.395V45.2954ZM51.8633 47.7837C50.9791 48.4308 50.4642 48.9731 50.3183 49.4106C50.1816 49.8481 50.1133 50.4771 50.1133 51.2974C50.1133 52.2362 50.1725 52.8423 50.291 53.1157C50.4186 53.3892 50.6647 53.5259 51.0293 53.5259C51.3756 53.5259 51.5989 53.4211 51.6992 53.2114C51.8086 52.9927 51.8633 52.4276 51.8633 51.5161V47.7837ZM64.9746 34.2759V56.4106H59.2871V34.2759H64.9746Z" fill="#F7F7F7"/>
</svg>
