<svg viewBox="0 0 55 55" fill="none" xmlns="http://www.w3.org/2000/svg">
<circle cx="27.5327" cy="27.231" r="27" fill="#DC7751"/>
<path d="M36.5665 17.3015C36.3355 17.307 36.1159 17.4036 35.9559 17.5704L27.5329 25.9934L19.1098 17.5704C19.0283 17.4864 18.9307 17.4196 18.8229 17.374C18.715 17.3284 18.5991 17.3049 18.4821 17.3049C18.3079 17.305 18.1378 17.357 17.9933 17.4543C17.8489 17.5516 17.7368 17.6897 17.6714 17.8511C17.6059 18.0125 17.5901 18.1897 17.6259 18.3601C17.6618 18.5305 17.7476 18.6864 17.8725 18.8077L26.2955 27.2307L17.8725 35.6537C17.7886 35.7344 17.7215 35.8309 17.6753 35.9378C17.6291 36.0447 17.6047 36.1597 17.6036 36.2761C17.6024 36.3925 17.6244 36.508 17.6684 36.6157C17.7124 36.7235 17.7775 36.8214 17.8598 36.9037C17.9421 36.9861 18.0401 37.0511 18.1478 37.0951C18.2556 37.1391 18.3711 37.1612 18.4875 37.16C18.6039 37.1588 18.7189 37.1344 18.8258 37.0882C18.9326 37.0421 19.0292 36.975 19.1098 36.891L27.5329 28.468L35.9559 36.891C36.0365 36.975 36.1331 37.0421 36.2399 37.0882C36.3468 37.1344 36.4618 37.1588 36.5782 37.16C36.6946 37.1612 36.8101 37.1391 36.9179 37.0951C37.0256 37.0511 37.1236 36.9861 37.2059 36.9037C37.2882 36.8214 37.3533 36.7235 37.3973 36.6157C37.4413 36.508 37.4633 36.3925 37.4621 36.2761C37.461 36.1597 37.4366 36.0447 37.3904 35.9378C37.3442 35.8309 37.2771 35.7344 37.1932 35.6537L28.7702 27.2307L37.1932 18.8077C37.3204 18.6856 37.4078 18.5278 37.4438 18.3552C37.4799 18.1826 37.4629 18.0031 37.3952 17.8402C37.3274 17.6774 37.2121 17.5388 37.0642 17.4427C36.9163 17.3466 36.7429 17.2973 36.5665 17.3015Z" fill="white"/>
</svg>
