<svg xmlns="http://www.w3.org/2000/svg" width="26" height="15.17" viewBox="0 0 26 15.17">
  <path d="M8.94,18.2a5.41,5.41,0,1,0,7.64-7.63M13,4.88A13.42,13.42,0,0,0,0,14.7a.79.79,0,0,0,.58,1,.81.81,0,0,0,1-.58A11.94,11.94,0,0,1,13,6.5a10.81,10.81,0,0,1,2.73.34L17.05,5.5A13.4,13.4,0,0,0,13,4.88Zm.89,8.38a1.63,1.63,0,0,1-.88,3,1.63,1.63,0,0,1-1.36-.74Z" transform="translate(0 -4.88)" fill="#ececec"/>
  <path d="M11.8,13.81a1.63,1.63,0,0,1,2.29-.17,1.56,1.56,0,0,1,.55,1.16l3.77-.35a5.41,5.41,0,1,0-10.75,1l3.78-.36A1.58,1.58,0,0,1,11.8,13.81Z" transform="translate(0 -4.88)" fill="#ececec"/>
  <path d="M17,18.2a5.41,5.41,0,1,1-7.65-7.63M13,4.88A13.45,13.45,0,0,1,26,14.7a.79.79,0,0,1-.58,1,.81.81,0,0,1-1-.58A12,12,0,0,0,13,6.5a10.86,10.86,0,0,0-2.73.34L8.92,5.5A13.4,13.4,0,0,1,13,4.88Zm-.89,8.38a1.61,1.61,0,0,0-.74,1.36,1.63,1.63,0,0,0,3,.89Z" transform="translate(0 -4.88)" fill="#ececec"/>
</svg>
