<svg width="42" height="42" viewBox="0 0 42 42" fill="none" xmlns="http://www.w3.org/2000/svg">
<path d="M19.25 3.5L17.8931 9.48145L13.1489 14.752C12.5697 15.3942 12.25 16.2288 12.25 17.0933V33.25C12.25 35.1838 13.8162 36.75 15.75 36.75H29.8047C31.1014 36.75 32.2755 35.9865 32.8022 34.8018L38.0557 22.979C38.3479 22.3245 38.5 21.615 38.5 20.8975V19.25C38.5 17.325 36.925 15.75 35 15.75H22.75C22.75 15.75 24.5 11.6012 24.5 8.51074C24.5 3.71224 19.25 3.5 19.25 3.5ZM3.5 15.75V36.75H8.75V15.75H3.5Z" fill="#535C79"/>
</svg>
