<svg width="26" height="26" viewBox="0 0 26 26" fill="none" xmlns="http://www.w3.org/2000/svg">
<path d="M23.0049 2.15927C22.7939 2.16542 22.5935 2.25345 22.4463 2.40472L15.1803 9.67066C15.1777 9.66951 15.1755 9.66758 15.1729 9.66643L8.04134 16.797C8.04262 16.7999 8.0443 16.8025 8.04558 16.8054L2.40462 22.4464C2.32665 22.5212 2.26439 22.6109 2.22151 22.7102C2.17862 22.8094 2.15596 22.9162 2.15486 23.0243C2.15377 23.1324 2.17425 23.2396 2.21511 23.3397C2.25597 23.4397 2.31638 23.5307 2.39282 23.6071C2.46926 23.6835 2.56018 23.744 2.66026 23.7848C2.76034 23.8257 2.86757 23.8462 2.97567 23.8451C3.08376 23.844 3.19055 23.8213 3.28978 23.7784C3.38901 23.7355 3.47868 23.6733 3.55355 23.5953L8.94483 18.204C9.93719 19.3287 11.3852 20.0417 12.9999 20.0417C15.9867 20.0417 18.4166 17.6118 18.4166 14.625C18.4166 13.0106 17.7036 11.5624 16.5789 10.5699L18.9868 8.16204C21.6148 9.70078 23.6539 12.1858 24.4024 15.0958C24.4945 15.4641 24.8245 15.7083 25.1874 15.7083C25.2524 15.7083 25.3224 15.7025 25.3874 15.6808C25.8261 15.5725 26.0862 15.1292 25.9724 14.6959C25.1383 11.4445 22.9998 8.70627 20.1918 6.95704L23.5952 3.55364C23.7124 3.43948 23.7925 3.2926 23.8248 3.1322C23.8572 2.97181 23.8404 2.80539 23.7766 2.65472C23.7128 2.50404 23.605 2.37614 23.4673 2.28774C23.3296 2.19934 23.1684 2.15456 23.0049 2.15927ZM12.9946 4.87501C6.94421 4.87501 1.48993 9.00298 0.0274259 14.6959C-0.0863241 15.1292 0.173718 15.5725 0.612468 15.6808C1.0458 15.7946 1.48908 15.5345 1.59741 15.0958C2.8595 10.1937 7.76213 6.50001 12.9946 6.50001C13.9209 6.50001 14.8359 6.6133 15.7188 6.83538L17.0518 5.50343C15.7573 5.09176 14.3921 4.87501 12.9946 4.87501ZM12.9999 9.20834C10.0132 9.20834 7.58325 11.6383 7.58325 14.625C7.58325 14.7317 7.59262 14.8368 7.59912 14.9424L13.3173 9.22421C13.2117 9.21771 13.1066 9.20834 12.9999 9.20834ZM13.8844 13.2645C14.3294 13.5544 14.6249 14.0542 14.6249 14.625C14.6249 15.5226 13.8975 16.25 12.9999 16.25C12.4291 16.25 11.9293 15.9545 11.6394 15.5094L13.8844 13.2645Z" fill="#ECECEC"/>
</svg>
