<svg viewBox="0 0 44 42" xmlns="http://www.w3.org/2000/svg">
<g filter="url(#filter0_dd_1925_2094)">
<path d="M14.8544 0.604736C9.3415 0.604736 4.85715 5.09324 4.85715 10.6075V24.8932C4.85715 30.4061 9.34565 34.8905 14.8599 34.8905H29.1457C34.6585 34.8905 39.1429 30.402 39.1429 24.8877V10.6019C39.1429 5.08909 34.6544 0.604736 29.1401 0.604736H14.8544ZM32 6.31902C32.7886 6.31902 33.4286 6.95902 33.4286 7.7476C33.4286 8.53617 32.7886 9.17617 32 9.17617C31.2114 9.17617 30.5714 8.53617 30.5714 7.7476C30.5714 6.95902 31.2114 6.31902 32 6.31902ZM22 9.17617C26.7272 9.17617 30.5714 13.0205 30.5714 17.7476C30.5714 22.4747 26.7272 26.319 22 26.319C17.2729 26.319 13.4286 22.4747 13.4286 17.7476C13.4286 13.0205 17.2729 9.17617 22 9.17617ZM22 12.0333C20.4845 12.0333 19.031 12.6354 17.9594 13.707C16.8878 14.7786 16.2857 16.2321 16.2857 17.7476C16.2857 19.2631 16.8878 20.7166 17.9594 21.7882C19.031 22.8598 20.4845 23.4619 22 23.4619C23.5155 23.4619 24.969 22.8598 26.0406 21.7882C27.1123 20.7166 27.7143 19.2631 27.7143 17.7476C27.7143 16.2321 27.1123 14.7786 26.0406 13.707C24.969 12.6354 23.5155 12.0333 22 12.0333Z" fill="#FDFDF6"/>
</g>
<defs>
<filter id="filter0_dd_1925_2094" x="0.857147" y="0.604736" width="42.2857" height="42.2856" filterUnits="userSpaceOnUse" color-interpolation-filters="sRGB">
<feFlood flood-opacity="0" result="BackgroundImageFix"/>
<feColorMatrix in="SourceAlpha" type="matrix" values="0 0 0 0 0 0 0 0 0 0 0 0 0 0 0 0 0 0 127 0" result="hardAlpha"/>
<feOffset dy="4"/>
<feGaussianBlur stdDeviation="2"/>
<feComposite in2="hardAlpha" operator="out"/>
<feColorMatrix type="matrix" values="0 0 0 0 0 0 0 0 0 0 0 0 0 0 0 0 0 0 0.25 0"/>
<feBlend mode="normal" in2="BackgroundImageFix" result="effect1_dropShadow_1925_2094"/>
<feColorMatrix in="SourceAlpha" type="matrix" values="0 0 0 0 0 0 0 0 0 0 0 0 0 0 0 0 0 0 127 0" result="hardAlpha"/>
<feOffset dy="4"/>
<feGaussianBlur stdDeviation="2"/>
<feComposite in2="hardAlpha" operator="out"/>
<feColorMatrix type="matrix" values="0 0 0 0 0 0 0 0 0 0 0 0 0 0 0 0 0 0 0.25 0"/>
<feBlend mode="normal" in2="effect1_dropShadow_1925_2094" result="effect2_dropShadow_1925_2094"/>
<feBlend mode="normal" in="SourceGraphic" in2="effect2_dropShadow_1925_2094" result="shape"/>
</filter>
</defs>
</svg>
