<svg viewBox="0 0 28 27" fill="none" xmlns="http://www.w3.org/2000/svg">
<path d="M12.8625 0.748657L11.8287 5.30595L8.21411 9.32157C7.77278 9.81091 7.52922 10.4468 7.52922 11.1054V23.4153C7.52922 24.8887 8.72255 26.082 10.1959 26.082H20.9042C21.8922 26.082 22.7867 25.5003 23.1881 24.5976L27.1907 15.5898C27.4133 15.0911 27.5292 14.5505 27.5292 14.0039V12.7487C27.5292 11.282 26.3292 10.082 24.8625 10.082H15.5292C15.5292 10.082 16.8625 6.92103 16.8625 4.56637C16.8625 0.910366 12.8625 0.748657 12.8625 0.748657ZM0.862549 10.082V26.082H4.86255V10.082H0.862549Z"/>
</svg>