<svg width="100%" height="100%" viewBox="0 0 45 45" fill="none" xmlns="http://www.w3.org/2000/svg">
<g clip-path="url(#clip0_4297_997)">
<path d="M12.1083 20.7459C8.84764 23.1218 8.12421 27.7307 10.5001 30.9914C12.876 34.252 17.4849 34.9754 20.7456 32.5995L22.9008 31.0291C23.045 30.9271 23.1676 30.7974 23.2613 30.6476C23.355 30.4978 23.418 30.3309 23.4467 30.1565C23.4753 29.9821 23.469 29.8038 23.4281 29.6319C23.3872 29.46 23.3126 29.2979 23.2085 29.1551C23.1045 29.0123 22.9731 28.8916 22.8219 28.8C22.6708 28.7084 22.503 28.6478 22.3283 28.6216C22.1535 28.5955 21.9753 28.6043 21.804 28.6476C21.6327 28.6909 21.4717 28.7678 21.3304 28.8739L19.1752 30.4443C17.079 31.9717 14.1827 31.5171 12.6553 29.421C11.128 27.3248 11.5826 24.4285 13.6787 22.9011L15.8339 21.3307C15.9782 21.2287 16.1007 21.099 16.1944 20.9492C16.2881 20.7994 16.3511 20.6324 16.3798 20.4581C16.4084 20.2837 16.4021 20.1054 16.3612 19.9335C16.3203 19.7616 16.2457 19.5995 16.1416 19.4567C16.0376 19.3139 15.9062 19.1932 15.7551 19.1016C15.604 19.01 15.4361 18.9494 15.2614 18.9232C15.0866 18.8971 14.9084 18.9059 14.7371 18.9492C14.5658 18.9925 14.4048 19.0694 14.2635 19.1755L12.1083 20.7459ZM21.8067 13.679C21.6624 13.7811 21.5399 13.9108 21.4462 14.0606C21.3525 14.2104 21.2895 14.3773 21.2608 14.5517C21.2322 14.726 21.2385 14.9043 21.2794 15.0762C21.3203 15.2482 21.3949 15.4102 21.499 15.553C21.603 15.6958 21.7344 15.8165 21.8855 15.9081C22.0367 15.9997 22.2045 16.0603 22.3792 16.0865C22.554 16.1127 22.7322 16.1038 22.9035 16.0605C23.0748 16.0172 23.2358 15.9403 23.3771 15.8342L25.5323 14.2638C27.6284 12.7365 30.5248 13.1911 32.0522 15.2872C33.5795 17.3833 33.1249 20.2797 31.0288 21.807L28.8736 23.3775C28.7293 23.4795 28.6068 23.6092 28.513 23.759C28.4193 23.9088 28.3563 24.0757 28.3277 24.2501C28.2991 24.4244 28.3054 24.6028 28.3463 24.7747C28.3871 24.9466 28.4618 25.1086 28.5658 25.2514C28.6699 25.3943 28.8013 25.515 28.9524 25.6065C29.1035 25.6981 29.2713 25.7588 29.4461 25.7849C29.6208 25.8111 29.7991 25.8023 29.9704 25.759C30.1417 25.7156 30.3027 25.6387 30.444 25.5327L32.5992 23.9622C35.8598 21.5863 36.5833 16.9774 34.2074 13.7168C31.8314 10.4561 27.2225 9.73271 23.9619 12.1086L21.8067 13.679ZM15.1029 25.9877C14.9587 26.0898 14.8361 26.2194 14.7424 26.3692C14.6487 26.519 14.5857 26.686 14.557 26.8603C14.5284 27.0347 14.5347 27.213 14.5756 27.3849C14.6165 27.5568 14.6911 27.7189 14.7952 27.8617C14.8992 28.0045 15.0306 28.1252 15.1818 28.2168C15.3329 28.3084 15.5007 28.369 15.6754 28.3952C15.8502 28.4214 16.0284 28.4125 16.1997 28.3692C16.371 28.3259 16.532 28.249 16.6733 28.1429L29.6046 18.7204C29.7488 18.6184 29.8714 18.4887 29.9651 18.3389C30.0588 18.1891 30.1218 18.0222 30.1504 17.8478C30.1791 17.6734 30.1728 17.4951 30.1319 17.3232C30.091 17.1513 30.0164 16.9892 29.9123 16.8464C29.8082 16.7036 29.6768 16.5829 29.5257 16.4913C29.3746 16.3998 29.2068 16.3391 29.032 16.313C28.8573 16.2868 28.6791 16.2956 28.5078 16.3389C28.3365 16.3822 28.1755 16.4592 28.0341 16.5652L15.1029 25.9877Z" fill="#D5D5D5"/>
</g>
<defs>
<clipPath id="clip0_4297_997">
<rect width="32" height="32" fill="white" transform="translate(0 18.8452) rotate(-36.0794)"/>
</clipPath>
</defs>
</svg>
