<svg viewBox="0 0 21 22" fill="none" xmlns="http://www.w3.org/2000/svg">
<path d="M10.4738 0.0267334C7.15982 0.0267334 4.47382 2.71273 4.47382 6.02673C4.47382 10.3127 10.4738 17.0267 10.4738 17.0267C10.4738 17.0267 16.4738 10.3127 16.4738 6.02673C16.4738 2.71273 13.7878 0.0267334 10.4738 0.0267334ZM10.4738 3.88416C11.6578 3.88416 12.6164 4.84273 12.6164 6.02673C12.6164 7.20973 11.6568 8.16931 10.4738 8.16931C9.29082 8.16931 8.33124 7.21073 8.33124 6.02673C8.33124 4.84273 9.28982 3.88416 10.4738 3.88416ZM3.2746 14.0267L0.473816 21.0267H20.4738L17.673 14.0267H15.2863C14.8013 14.7577 14.3144 15.4347 13.8664 16.0267H16.3215L17.5207 19.0267H3.42694L4.62616 16.0267H7.08124C6.63324 15.4347 6.14632 14.7577 5.66132 14.0267H3.2746Z" fill="#F88633"/>
</svg>
