<svg  viewBox="0 0 16 22" xmlns="http://www.w3.org/2000/svg">
<path d="M14.502 16.2757C13.8974 16.0981 13.141 15.8571 12.6798 15.6425C12.1811 15.4095 11.5995 15.061 11.1931 14.8041C10.8744 14.6028 10.4701 14.5969 10.1434 14.7848L7.43147 16.3399C6.16054 15.1638 5.21864 13.9383 4.48551 12.66C3.74503 11.3859 3.15463 9.95746 2.77164 8.26879L5.4746 6.69681C5.8009 6.50678 5.99773 6.15473 5.98272 5.77801C5.96409 5.29886 5.95248 4.61971 6.00003 4.07133C6.04469 3.56463 6.21394 2.79004 6.36276 2.17666C6.49101 1.64783 6.17394 1.11564 5.64751 0.974579L2.25711 0.0661241C1.83404 -0.0472386 1.2063 0.124128 1.03237 0.773231C-0.14241 5.15757 0.512913 9.82108 2.71453 13.6825C4.95779 17.5198 8.66885 20.4191 13.0532 21.5939C13.7023 21.7678 14.1646 21.3099 14.2779 20.8868L15.1864 17.4964C15.3274 16.97 15.0251 16.4293 14.502 16.2757Z" fill="#F88633"/>
</svg>
