<svg width="100%" height="100%" viewBox="0 0 28 29" fill="none" xmlns="http://www.w3.org/2000/svg">
<path d="M13.9996 4.20404C13.6904 4.20858 13.3956 4.33568 13.1801 4.55743C12.9645 4.77918 12.8458 5.07744 12.85 5.38666V14.1367H4.10003C3.94543 14.1345 3.79194 14.163 3.64848 14.2207C3.50502 14.2783 3.37444 14.3639 3.26435 14.4725C3.15425 14.581 3.06682 14.7104 3.00715 14.853C2.94748 14.9956 2.91675 15.1487 2.91675 15.3033C2.91675 15.4579 2.94748 15.611 3.00715 15.7536C3.06682 15.8963 3.15425 16.0256 3.26435 16.1342C3.37444 16.2427 3.50502 16.3283 3.64848 16.386C3.79194 16.4436 3.94543 16.4722 4.10003 16.47H12.85V25.22C12.8478 25.3746 12.8764 25.5281 12.9341 25.6715C12.9917 25.815 13.0773 25.9456 13.1859 26.0557C13.2944 26.1658 13.4238 26.2532 13.5664 26.3129C13.709 26.3726 13.8621 26.4033 14.0167 26.4033C14.1713 26.4033 14.3244 26.3726 14.467 26.3129C14.6097 26.2532 14.739 26.1658 14.8476 26.0557C14.9561 25.9456 15.0417 25.815 15.0993 25.6715C15.157 25.5281 15.1856 25.3746 15.1834 25.22V16.47H23.9334C24.088 16.4722 24.2415 16.4436 24.3849 16.386C24.5284 16.3283 24.659 16.2427 24.7691 16.1342C24.8792 16.0256 24.9666 15.8963 25.0263 15.7536C25.0859 15.611 25.1167 15.4579 25.1167 15.3033C25.1167 15.1487 25.0859 14.9956 25.0263 14.853C24.9666 14.7104 24.8792 14.581 24.7691 14.4725C24.659 14.3639 24.5284 14.2783 24.3849 14.2207C24.2415 14.163 24.088 14.1345 23.9334 14.1367H15.1834V5.38666C15.1855 5.23067 15.1563 5.07584 15.0976 4.93132C15.0388 4.7868 14.9517 4.65552 14.8413 4.54526C14.731 4.43501 14.5996 4.348 14.455 4.28939C14.3105 4.23078 14.1556 4.20176 13.9996 4.20404Z" fill="white"/>
</svg>
