<svg width="24" height="24" viewBox="0 0 24 24" fill="none" xmlns="http://www.w3.org/2000/svg">
<path d="M10.0799 1.43994C5.57805 1.43994 1.91992 5.09807 1.91992 9.59994C1.91992 14.1018 5.57805 17.7599 10.0799 17.7599C11.8612 17.7599 13.5074 17.1862 14.8499 16.2149L21.1649 22.5149L22.5149 21.1649L16.2749 14.9099C17.5012 13.4812 18.2399 11.6268 18.2399 9.59994C18.2399 5.09807 14.5818 1.43994 10.0799 1.43994ZM10.0799 2.39994C14.0624 2.39994 17.2799 5.61744 17.2799 9.59994C17.2799 13.5824 14.0624 16.7999 10.0799 16.7999C6.09742 16.7999 2.87992 13.5824 2.87992 9.59994C2.87992 5.61744 6.09742 2.39994 10.0799 2.39994Z" fill="#F7F7F7"/>
</svg>
