<svg  viewBox="0 0 32 36" fill="none" xmlns="http://www.w3.org/2000/svg">
<path d="M26.5 0.5C25.1076 0.5 23.7723 1.05312 22.7877 2.03769C21.8031 3.02226 21.25 4.35761 21.25 5.75C21.2511 6.07926 21.2831 6.4077 21.3457 6.73096L8.89404 13.9941C7.94564 13.1907 6.74295 12.7499 5.5 12.75C4.10761 12.75 2.77226 13.3031 1.78769 14.2877C0.803124 15.2723 0.25 16.6076 0.25 18C0.25 19.3924 0.803124 20.7277 1.78769 21.7123C2.77226 22.6969 4.10761 23.25 5.5 23.25C6.74103 23.2476 7.94108 22.8056 8.88721 22.0024L21.3457 29.269C21.2831 29.5923 21.2511 29.9207 21.25 30.25C21.25 31.6424 21.8031 32.9777 22.7877 33.9623C23.7723 34.9469 25.1076 35.5 26.5 35.5C27.8924 35.5 29.2277 34.9469 30.2123 33.9623C31.1969 32.9777 31.75 31.6424 31.75 30.25C31.75 28.8576 31.1969 27.5223 30.2123 26.5377C29.2277 25.5531 27.8924 25 26.5 25C25.2578 25.0016 24.0564 25.4437 23.1094 26.2476L10.6543 18.981C10.7169 18.6577 10.7489 18.3293 10.75 18C10.7489 17.6707 10.7169 17.3423 10.6543 17.019L23.106 9.75586C24.0544 10.5593 25.257 11.0001 26.5 11C27.8924 11 29.2277 10.4469 30.2123 9.46231C31.1969 8.47774 31.75 7.14239 31.75 5.75C31.75 4.35761 31.1969 3.02226 30.2123 2.03769C29.2277 1.05312 27.8924 0.5 26.5 0.5Z" fill="#ECECEC"/>
</svg>
