<svg viewBox="0 0 25 21" fill="none" xmlns="http://www.w3.org/2000/svg">
<path d="M1.39582 0.250939C1.28815 0.249358 1.18126 0.270014 1.08135 0.311706C0.981435 0.353399 0.890499 0.415297 0.813823 0.493804C0.737148 0.57231 0.676263 0.665859 0.634705 0.769013C0.593147 0.872168 0.571747 0.982871 0.571747 1.09469C0.571747 1.20651 0.593147 1.31721 0.634705 1.42036C0.676263 1.52352 0.737148 1.61707 0.813823 1.69557C0.890499 1.77408 0.981435 1.83598 1.08135 1.87767C1.18126 1.91936 1.28815 1.94002 1.39582 1.93844H2.88858C3.28287 1.93844 3.61155 2.22133 3.68626 2.62399L3.84601 3.4941C3.84646 3.49667 3.8466 3.49922 3.84707 3.50179L5.59479 13.0291C5.91058 14.7515 7.36589 16.0009 9.05427 16.0009H19.1968C20.8851 16.0009 22.3388 14.7515 22.6552 13.0291L24.4029 3.50179C24.4473 3.25542 24.3843 3.00042 24.2304 2.80636C24.0761 2.61286 23.8463 2.50094 23.6041 2.50094H5.31761L5.2827 2.30868C5.06434 1.1203 4.05376 0.250939 2.88858 0.250939H1.39582ZM13.8541 5.87594C14.3032 5.87594 14.6666 6.25338 14.6666 6.71969V8.12594H16.0208C16.4699 8.12594 16.8333 8.50337 16.8333 8.96969C16.8333 9.436 16.4699 9.81344 16.0208 9.81344H14.6666V11.2197C14.6666 11.686 14.3032 12.0634 13.8541 12.0634C13.4051 12.0634 13.0416 11.686 13.0416 11.2197V9.81344H11.6875C11.2384 9.81344 10.875 9.436 10.875 8.96969C10.875 8.50337 11.2384 8.12594 11.6875 8.12594H13.0416V6.71969C13.0416 6.25338 13.4051 5.87594 13.8541 5.87594ZM10.3333 17.1259C9.90234 17.1259 9.48902 17.3037 9.18427 17.6202C8.87952 17.9367 8.70832 18.3659 8.70832 18.8134C8.70832 19.261 8.87952 19.6902 9.18427 20.0067C9.48902 20.3231 9.90234 20.5009 10.3333 20.5009C10.7643 20.5009 11.1776 20.3231 11.4824 20.0067C11.7871 19.6902 11.9583 19.261 11.9583 18.8134C11.9583 18.3659 11.7871 17.9367 11.4824 17.6202C11.1776 17.3037 10.7643 17.1259 10.3333 17.1259ZM17.9166 17.1259C17.4857 17.1259 17.0723 17.3037 16.7676 17.6202C16.4629 17.9367 16.2916 18.3659 16.2916 18.8134C16.2916 19.261 16.4629 19.6902 16.7676 20.0067C17.0723 20.3231 17.4857 20.5009 17.9166 20.5009C18.3476 20.5009 18.761 20.3231 19.0657 20.0067C19.3704 19.6902 19.5416 19.261 19.5416 18.8134C19.5416 18.3659 19.3704 17.9367 19.0657 17.6202C18.761 17.3037 18.3476 17.1259 17.9166 17.1259Z" fill="#ECECEC"/>
</svg>
