<svg width="100%" height="100%" viewBox="0 0 28 29" fill="none" xmlns="http://www.w3.org/2000/svg">
<path d="M3.79176 13.2456C3.67581 13.2439 3.56069 13.2654 3.4531 13.3086C3.3455 13.3518 3.24757 13.416 3.16499 13.4974C3.08242 13.5788 3.01685 13.6759 2.9721 13.7828C2.92734 13.8898 2.9043 14.0046 2.9043 14.1206C2.9043 14.2365 2.92734 14.3513 2.9721 14.4583C3.01685 14.5653 3.08242 14.6623 3.16499 14.7437C3.24757 14.8251 3.3455 14.8893 3.4531 14.9326C3.56069 14.9758 3.67581 14.9972 3.79176 14.9956H24.2084C24.3244 14.9972 24.4395 14.9758 24.5471 14.9326C24.6547 14.8893 24.7526 14.8251 24.8352 14.7437C24.9178 14.6623 24.9833 14.5653 25.0281 14.4583C25.0728 14.3513 25.0959 14.2365 25.0959 14.1206C25.0959 14.0046 25.0728 13.8898 25.0281 13.7828C24.9833 13.6759 24.9178 13.5788 24.8352 13.4974C24.7526 13.416 24.6547 13.3518 24.5471 13.3086C24.4395 13.2654 24.3244 13.2439 24.2084 13.2456H3.79176Z" fill="white"/>
</svg>
