<svg  viewBox="0 0 43 42" fill="none" xmlns="http://www.w3.org/2000/svg">
<g filter="url(#filter0_dd_1925_2096)">
<path d="M21.7143 0.604736C12.2471 0.604736 4.57141 8.28045 4.57141 17.7476C4.57141 27.2147 12.2471 34.8905 21.7143 34.8905C31.1814 34.8905 38.8571 27.2147 38.8571 17.7476C38.8571 8.28045 31.1814 0.604736 21.7143 0.604736ZM30.9486 14.2262C30.9571 14.4162 30.9614 14.6047 30.9614 14.7933C30.9614 20.6047 26.54 27.3019 18.4528 27.3019C15.9686 27.3019 13.6586 26.5747 11.7143 25.3262C12.0586 25.3676 12.4086 25.3862 12.7643 25.3862C14.8257 25.3862 16.72 24.6847 18.2228 23.5033C16.2986 23.4676 14.6743 22.1962 14.1157 20.4505C14.3843 20.5019 14.66 20.529 14.9428 20.529C15.3443 20.529 15.7343 20.4747 16.1014 20.3747C14.09 19.9719 12.5743 18.1947 12.5743 16.0647C12.5743 16.0462 12.5743 16.0276 12.5743 16.009C13.1671 16.339 13.8443 16.5362 14.5657 16.559C13.3871 15.7719 12.61 14.4247 12.61 12.9005C12.61 12.0933 12.8257 11.3376 13.2043 10.6905C15.3728 13.3505 18.6128 15.1019 22.2657 15.2847C22.1914 14.9633 22.1528 14.6276 22.1528 14.2833C22.1528 11.8562 24.1214 9.88617 26.5486 9.88617C27.8128 9.88617 28.9557 10.4205 29.7571 11.2747C30.7586 11.0762 31.7 10.7119 32.55 10.2076C32.2214 11.2347 31.5243 12.0947 30.6157 12.6405C31.5043 12.5347 32.3514 12.299 33.1414 11.949C32.5543 12.8319 31.81 13.6047 30.9486 14.2262Z" fill="#FDFDF6"/>
</g>
<defs>
<filter id="filter0_dd_1925_2096" x="0.571411" y="0.604736" width="42.2857" height="42.2856" filterUnits="userSpaceOnUse" color-interpolation-filters="sRGB">
<feFlood flood-opacity="0" result="BackgroundImageFix"/>
<feColorMatrix in="SourceAlpha" type="matrix" values="0 0 0 0 0 0 0 0 0 0 0 0 0 0 0 0 0 0 127 0" result="hardAlpha"/>
<feOffset dy="4"/>
<feGaussianBlur stdDeviation="2"/>
<feComposite in2="hardAlpha" operator="out"/>
<feColorMatrix type="matrix" values="0 0 0 0 0 0 0 0 0 0 0 0 0 0 0 0 0 0 0.25 0"/>
<feBlend mode="normal" in2="BackgroundImageFix" result="effect1_dropShadow_1925_2096"/>
<feColorMatrix in="SourceAlpha" type="matrix" values="0 0 0 0 0 0 0 0 0 0 0 0 0 0 0 0 0 0 127 0" result="hardAlpha"/>
<feOffset dy="4"/>
<feGaussianBlur stdDeviation="2"/>
<feComposite in2="hardAlpha" operator="out"/>
<feColorMatrix type="matrix" values="0 0 0 0 0 0 0 0 0 0 0 0 0 0 0 0 0 0 0.25 0"/>
<feBlend mode="normal" in2="effect1_dropShadow_1925_2096" result="effect2_dropShadow_1925_2096"/>
<feBlend mode="normal" in="SourceGraphic" in2="effect2_dropShadow_1925_2096" result="shape"/>
</filter>
</defs>
</svg>
