<svg width="52" height="50" viewBox="0 0 52 50" fill="none" xmlns="http://www.w3.org/2000/svg">
<rect width="52" height="50" rx="10" fill="url(#paint0_linear_4297_1009)" fillOpacity="0.8"/>
<path d="M26.5715 9.28564C17.8932 9.28564 10.8572 16.3217 10.8572 24.9999C10.8572 33.6781 17.8932 40.7142 26.5715 40.7142C35.2497 40.7142 42.2857 33.6781 42.2857 24.9999C42.2857 16.3217 35.2497 9.28564 26.5715 9.28564ZM35.0362 21.772C35.0441 21.9461 35.048 22.119 35.048 22.2918C35.048 27.619 30.995 33.758 23.5818 33.758C21.3046 33.758 19.1871 33.0915 17.4048 31.947C17.7204 31.9849 18.0412 32.002 18.3673 32.002C20.2569 32.002 21.9934 31.359 23.371 30.276C21.6071 30.2433 20.1181 29.0778 19.6061 27.4776C19.8523 27.5247 20.105 27.5496 20.3643 27.5496C20.7323 27.5496 21.0898 27.4998 21.4263 27.4081C19.5825 27.0389 18.1931 25.4098 18.1931 23.4573C18.1931 23.4403 18.1931 23.4233 18.1931 23.4062C18.7366 23.7087 19.3573 23.8895 20.0186 23.9104C18.9382 23.1889 18.2259 21.954 18.2259 20.5567C18.2259 19.8168 18.4236 19.1241 18.7706 18.5309C20.7585 20.9692 23.7285 22.5747 27.0769 22.7423C27.0088 22.4477 26.9735 22.1399 26.9735 21.8243C26.9735 19.5995 28.778 17.7936 31.0029 17.7936C32.1618 17.7936 33.2094 18.2834 33.9441 19.0665C34.8621 18.8845 35.725 18.5505 36.5042 18.0883C36.203 19.0298 35.564 19.8181 34.7311 20.3184C35.5456 20.2215 36.3222 20.0054 37.0463 19.6846C36.5081 20.4939 35.8259 21.2023 35.0362 21.772Z" fill="#F7F7F7"/>
<defs>
<linearGradient id="paint0_linear_4297_1009" x1="17.701" y1="1.05013" x2="17.701" y2="49.1324" gradientUnits="userSpaceOnUse">
<stop stopColor="#9FAFEF" stopOpacity="0.64"/>
<stop offset="0.963542" stopColor="#8C98BE" stopOpacity="0.63"/>
</linearGradient>
</defs>
</svg>
