<svg viewBox="0 0 30 22" fill="none" xmlns="http://www.w3.org/2000/svg">
<path d="M14.8008 0.145142C5.65676 0.145142 1.31503 7.98333 0.2617 10.2207C0.0856997 10.594 0.0856997 11.027 0.2617 11.4003C1.31503 13.639 5.65676 21.4785 14.8008 21.4785C23.9128 21.4785 28.2574 13.6957 29.3294 11.4264C29.5134 11.0357 29.5134 10.5879 29.3294 10.1972C28.2574 7.92789 23.9128 0.145142 14.8008 0.145142ZM14.8008 4.14514C18.4821 4.14514 21.4674 7.13047 21.4674 10.8118C21.4674 14.4931 18.4821 17.4785 14.8008 17.4785C11.1194 17.4785 8.13409 14.4931 8.13409 10.8118C8.13409 7.13047 11.1194 4.14514 14.8008 4.14514ZM14.8008 6.81181C13.7399 6.81181 12.7225 7.23323 11.9723 7.98338C11.2222 8.73353 10.8008 9.75094 10.8008 10.8118C10.8008 11.8727 11.2222 12.8901 11.9723 13.6402C12.7225 14.3904 13.7399 14.8118 14.8008 14.8118C15.8616 14.8118 16.879 14.3904 17.6292 13.6402C18.3793 12.8901 18.8008 11.8727 18.8008 10.8118C18.8008 9.75094 18.3793 8.73353 17.6292 7.98338C16.879 7.23323 15.8616 6.81181 14.8008 6.81181Z"/>
</svg>
