<svg width="52" height="50" viewBox="0 0 52 50" fill="none" xmlns="http://www.w3.org/2000/svg">
<rect width="52" height="50" rx="10" fill="url(#paint0_linear_4297_1013)" fillOpacity="0.8"/>
<path d="M26.5417 7.3999C17.0246 7.3999 9.30835 15.2803 9.30835 24.9999C9.30835 28.3017 10.2165 31.38 11.7654 34.0205L9.46262 42.5999L18.0428 40.2996C20.5522 41.7567 23.449 42.5999 26.5417 42.5999C36.0588 42.5999 43.775 34.7195 43.775 24.9999C43.775 15.2803 36.0588 7.3999 26.5417 7.3999ZM20.643 16.79C20.923 16.79 21.2107 16.7883 21.4592 16.8015C21.7665 16.8088 22.101 16.8318 22.4213 17.5548C22.8018 18.4143 23.6305 20.5704 23.7368 20.789C23.843 21.0075 23.9184 21.2649 23.7704 21.5509C23.6297 21.8443 23.5565 22.0218 23.3497 22.2814C23.1357 22.5337 22.9013 22.847 22.7074 23.0377C22.4934 23.2562 22.2724 23.4958 22.5194 23.9314C22.7665 24.367 23.6243 25.795 24.8924 26.9478C26.5224 28.435 27.8976 28.892 28.3256 29.1106C28.7536 29.3291 29.0014 29.2951 29.2484 29.0017C29.5026 28.7157 30.316 27.7344 30.6032 27.2973C30.8832 26.8602 31.1691 26.9359 31.5569 27.0796C31.9503 27.2233 34.0488 28.279 34.4768 28.4976C34.9047 28.7161 35.1853 28.8243 35.293 29.0017C35.4036 29.1851 35.4037 30.0578 35.049 31.0757C34.6942 32.0921 32.9524 33.075 32.1711 33.1439C31.3827 33.2187 30.6469 33.5058 27.0466 32.0582C22.7038 30.3114 19.965 25.7688 19.751 25.4754C19.537 25.1894 18.012 23.1136 18.012 20.9723C18.012 18.8236 19.1151 17.7713 19.5014 17.3343C19.8949 16.8972 20.3557 16.79 20.643 16.79Z" fill="#F7F7F7"/>
<defs>
<linearGradient id="paint0_linear_4297_1013" x1="17.701" y1="1.05013" x2="17.701" y2="49.1324" gradientUnits="userSpaceOnUse">
<stop stopColor="#9FAFEF" stopOpacity="0.64"/>
<stop offset="0.963542" stopColor="#8C98BE" stopOpacity="0.63"/>
</linearGradient>
</defs>
</svg>
